<svg version="1.1"  xmlns="http://www.w3.org/2000/svg" xmlns:xlink="http://www.w3.org/1999/xlink" x="0px" y="0px"
     width="31.16px" height="27.661px" viewBox="0 0 31.16 27.661" enable-background="new 0 0 31.16 27.661" xml:space="preserve">
<symbol  id="global_basket_order" viewBox="-15.579 -13.831 31.16 27.661">
	<g><g>
<path  d="M2.959,13.758c0.352,0.146,0.76,0.064,1.031-0.203l11.313-8.889c0.369-0.367,0.369-0.969,0-1.337
				L3.99-5.515c-0.18-0.182-0.423-0.277-0.668-0.277c-0.123,0-0.246,0.024-0.363,0.071C2.605-5.574,2.395-5.23,2.395-4.847V0.45
				c-12.098,0-17.39-3.412-16.584-14.28C-19.314,3.557-9.478,7.488,2.395,7.488v5.397C2.396,13.268,2.605,13.612,2.959,13.758z"/>
		</g>
	</g>
</symbol>
</svg>
