<svg version="1.1"  xmlns="http://www.w3.org/2000/svg" xmlns:xlink="http://www.w3.org/1999/xlink" x="0px" y="0px"
	 width="46.624px" height="47.033px" viewBox="0 0 46.624 47.033" enable-background="new 0 0 46.624 47.033" xml:space="preserve">
<symbol  id="global_basket_basket" viewBox="-23.312 -23.517 46.623 47.033">
	<g>
		<g>
			<g>
				<path  d="M-8.104-3.798c1.086,0,1.962-0.877,1.962-1.958v-7.647c0-3.416,2.782-6.195,6.194-6.195
					c3.421,0,6.198,2.779,6.198,6.195v7.647c0,1.081,0.882,1.958,1.962,1.958c1.082,0,1.961-0.877,1.961-1.958v-7.647
					c0-5.575-4.54-10.113-10.121-10.113c-5.573,0-10.111,4.538-10.111,10.113v7.647C-10.062-4.675-9.182-3.798-8.104-3.798z"/>
				<path  d="M22.536-8.206H12.133v2.45c0,2.161-1.758,3.917-3.92,3.917c-2.158,0-3.92-1.756-3.92-3.917v-2.45h-8.476
					v2.45c0,2.161-1.759,3.917-3.917,3.917c-2.162,0-3.922-1.756-3.922-3.917v-2.45h-10.516c-0.543,0-0.874,0.432-0.748,0.957
					l6.855,27.92c0.418,1.568,2.066,2.846,3.689,2.846h25.475c1.63,0,3.277-1.277,3.696-2.846l6.854-27.92
					C23.41-7.777,23.078-8.206,22.536-8.206z"/>
			</g>
		</g>
	</g>
</symbol>
</svg>
