<svg version="1.1" xmlns="http://www.w3.org/2000/svg" xmlns:xlink="http://www.w3.org/1999/xlink" x="0px" y="0px"
     width="23.331px" height="23.535px" viewBox="0 0 23.331 23.535" enable-background="new 0 0 23.331 23.535" xml:space="preserve">
<symbol  id="global_cart_filled" viewBox="-11.665 -11.768 23.33 23.535">
	<g>
		<g>
			<g>
				<path fill="#FFFFFF" d="M-4.055-1.9c0.543,0,0.981-0.439,0.981-0.98v-3.824c0-1.711,1.392-3.104,3.101-3.104
					c1.711,0,3.102,1.393,3.102,3.104v3.824c0,0.541,0.439,0.98,0.98,0.98c0.543,0,0.98-0.439,0.98-0.98v-3.824
					c0-2.791-2.27-5.062-5.063-5.062c-2.79,0-5.061,2.271-5.061,5.062v3.824C-5.035-2.34-4.595-1.9-4.055-1.9z"/>
				<path fill="#FFFFFF" d="M11.277-4.105H6.072v1.225c0,1.082-0.881,1.961-1.963,1.961c-1.08,0-1.961-0.879-1.961-1.961v-1.225
					h-4.242v1.225c0,1.082-0.879,1.961-1.96,1.961c-1.082,0-1.962-0.879-1.962-1.961v-1.225h-5.263
					c-0.272,0-0.438,0.215-0.374,0.479l3.431,13.973c0.208,0.785,1.033,1.422,1.846,1.422H6.373c0.814,0,1.641-0.637,1.848-1.422
					l3.432-13.973C11.715-3.891,11.549-4.105,11.277-4.105z"/>
			</g>
		</g>
	</g>
</symbol>
</svg>
