<svg version="1.1"  xmlns="http://www.w3.org/2000/svg" xmlns:xlink="http://www.w3.org/1999/xlink" x="0px" y="0px"
     width="570.386px" height="167.391px" viewBox="0 0 570.386 167.391" enable-background="new 0 0 570.386 167.391"
     xml:space="preserve">
<symbol  id="global_account" viewBox="-62.497 -75.212 124.993 150.424">
	<path d="M-38.48-38.979c1.268-20.317,18.208-36.232,38.567-36.232c21.324,0,38.673,17.348,38.674,38.625l-0.023,0.381
		c0,11.33-5.12,22.063-14.029,29.434l-1.612,1.256c-0.43,0.344-0.875,0.699-1.346,1.012c-0.856,0.593-1.707,1.095-2.736,1.675
		l-0.513,0.308c-0.789,0.432-1.606,0.805-2.469,1.192L15.77-1.201c-0.233,0.112-0.457,0.218-0.661,0.313
		c-0.61,0.252-1.199,0.456-1.817,0.668l-0.814,0.304c-0.178,0.06-0.35,0.121-0.522,0.184l-0.41,0.146
		c-0.499,0.154-0.997,0.278-1.529,0.399L8.572,1.187C8.332,1.249,8.093,1.311,7.86,1.361C7.304,1.466,6.779,1.544,6.241,1.614
		L5.003,1.803C4.67,1.857,4.345,1.911,3.996,1.944C2.673,2.076,1.362,2.144,0.098,2.144l-0.318-0.01
		C-4.06,2.107-7.84,1.52-11.456,0.387c-0.269-0.084-0.527-0.181-0.79-0.279l-1.504-0.546c-0.412-0.149-0.829-0.3-1.223-0.468
		c-14.361-6.072-23.635-20.06-23.624-35.633c0-0.666,0.045-1.312,0.096-1.938L-38.48-38.979z M-33.929-36.529
		c0,13.697,8.149,25.996,20.777,31.334c0.366,0.145,0.731,0.286,1.086,0.409l1.142,0.43c0.278,0.116,0.567,0.065,0.86,0.159
		c3.25,1.02,6.651,1.409,10.118,1.409h0.295c1.065,0,2.137,0.062,3.181-0.051c0.276-0.027,0.537-0.038,0.787-0.077l1.638-0.199
		c0.32-0.048,0.638-0.07,0.957-0.133c0.241-0.05,0.515-0.112,0.799-0.189l1.448-0.364c0.327-0.079,0.648-0.154,0.962-0.252
		c0.158-0.045,0.306-0.1,0.457-0.159l1.495-0.534c0.405-0.145,0.804-0.286,1.235-0.464l0.795-0.382
		c0.602-0.265,1.391-0.621,2.188-1.046l0.421-0.257c0.819-0.465,1.618-0.925,2.389-1.451c0.384-0.272,0.695-0.518,1.007-0.765
		l1.557-1.207c7.872-6.521,12.393-16.062,12.402-26.128l0.023-0.373c-0.011-18.59-15.265-33.713-34.004-33.713
		c-17.9,0-32.784,13.991-33.883,31.84l-0.043,0.551C-33.884-37.624-33.929-37.083-33.929-36.529z"/>
	<path d="M-62.497,70.829c0-23.895,13.963-46.021,35.573-56.358l0.508-0.248c1.897-0.878,3.812-1.659,5.7-2.323l0.608-0.221
		c0.918-0.308,1.878-0.617,2.841-0.903c1.322-0.377,2.595-0.703,3.773-0.969c0.67-0.143,1.33-0.275,1.993-0.395
		c0.612-0.112,1.225-0.224,1.788-0.326l0.32-0.036c0.873-0.146,1.746-0.263,2.659-0.358l2.225-0.194
		c2.838-0.21,5.889-0.218,8.775-0.026l2.372,0.196c0.691,0.085,1.36,0.17,2.049,0.278l0.485,0.073
		c0.807,0.117,1.603,0.256,2.407,0.412l0.32,0.058c0.457,0.085,0.924,0.176,1.378,0.271c1.166,0.251,2.386,0.564,3.955,1.015
		c0.865,0.25,1.697,0.508,2.533,0.777c0.965,0.321,1.987,0.697,3.129,1.15c1.019,0.398,1.931,0.788,2.793,1.19l0.375,0.174
		c22.133,10.179,36.435,32.462,36.435,56.763c0,0.445-0.027,0.695-0.054,1.13l-0.16,3.253H-62.301l-0.132-2.961
		C-62.465,71.717-62.497,71.368-62.497,70.829z M-57.827,70.212H57.816l-0.009-0.422C57.535,47.585,44.28,27.472,24.042,18.178
		l-0.143-0.018c-0.973-0.444-1.867-0.799-2.723-1.129c-0.85-0.343-1.796-0.677-2.898-1.049c-0.775-0.256-1.561-0.495-2.348-0.716
		c-1.225-0.361-2.453-0.675-3.653-0.937c-0.396-0.084-0.823-0.17-1.249-0.246l-0.348-0.062c-0.744-0.143-1.487-0.273-2.248-0.383
		l-0.712-0.096c-0.592-0.087-1.074-0.152-1.597-0.21l-1.969-0.167c-2.903-0.208-5.395-0.211-8.355,0.001l-2.04,0.179
		c-0.893,0.098-1.786,0.229-2.702,0.367l-0.232,0.043c-0.439,0.071-0.87,0.15-1.307,0.232l-0.18,0.032
		c-0.456,0.081-0.906,0.175-1.359,0.269l-0.471,0.096c-1.164,0.261-2.299,0.553-3.461,0.896c-0.948,0.265-1.833,0.538-2.714,0.848
		l-0.499,0.173c-1.631,0.573-3.246,1.205-4.798,1.911l-0.697,0.286c-19.871,9.307-32.886,29.279-33.159,51.293L-57.827,70.212z"/>
</symbol>
<symbol  id="global_cart" viewBox="-82.94 -83.649 165.88 167.299">
	<g>
		<g>
			<g>
				<g>
					<polygon points="25.885,-25.803 -25.487,-25.803 -25.487,-30.803 25.885,-30.803 					"/>
				</g>
				<g>
					<path d="M43.938,83.649h-87.899c-6.755,0-13.401-5.125-15.131-11.669l-23.684-96.403c-0.395-1.617-0.071-3.242,0.886-4.461
						c0.958-1.22,2.461-1.919,4.125-1.919h36.29v5h-36.29c-0.096,0-0.16,0.013-0.194,0.024c0.016,0.012,0.018,0.076,0.04,0.166
						l23.672,96.357c1.128,4.266,5.844,7.904,10.286,7.904h87.899c4.456,0,9.192-3.642,10.341-7.951L77.92-25.615
						c0.021-0.087,0.023-0.151,0.021-0.187c-0.018,0.012-0.082-0.001-0.178-0.001H41.872v-5h35.892c1.664,0,3.168,0.698,4.126,1.917
						c0.957,1.218,1.28,2.843,0.887,4.458L59.123,71.938C57.367,78.526,50.703,83.649,43.938,83.649z"/>
				</g>
				<g>
					<path d="M35.111-17.362c-1.381,0-2.5-1.119-2.5-2.5v-26.37c0-17.875-14.545-32.417-32.424-32.417
						c-17.865,0-32.4,14.542-32.4,32.417v26.37c0,1.381-1.119,2.5-2.5,2.5s-2.5-1.119-2.5-2.5v-26.37
						c0-20.632,16.777-37.417,37.4-37.417c20.636,0,37.424,16.785,37.424,37.417v26.37C37.611-18.481,36.492-17.362,35.111-17.362z"
						/>
				</g>
			</g>
		</g>
	</g>
</symbol>
<symbol  id="global_search" viewBox="-65.148 -67.663 130.296 135.326">
	<path d="M64.371,66.947c-0.495,0.484-1.13,0.716-1.776,0.716c-0.678,0-1.334-0.258-1.841-0.78L22.698,27.298
		c-9.279,7.708-21.208,12.349-34.19,12.349c-29.584,0-53.655-24.066-53.655-53.655c0-29.583,24.071-53.654,53.655-53.654
		c29.583,0,53.654,24.071,53.654,53.654c0,14.765-6.007,28.151-15.685,37.862l37.97,39.487
		C65.404,64.353,65.383,65.973,64.371,66.947z M37.048-14.009c0-26.763-21.778-48.541-48.541-48.541
		c-26.774,0-48.552,21.778-48.552,48.541c0,26.773,21.778,48.547,48.552,48.547C15.27,34.538,37.048,12.765,37.048-14.009z"/>
</symbol>
</svg>
