<svg version="1.1" xmlns="http://www.w3.org/2000/svg" xmlns:xlink="http://www.w3.org/1999/xlink" x="0px" y="0px"
     width="180.68px" height="31.658px" viewBox="0 0 180.68 31.658" enable-background="new 0 0 180.68 31.658" xml:space="preserve">
<symbol  id="common_logo" viewBox="-90.34 -15.829 180.68 31.658">
	<path d="M-61.264-0.479h-26.028v-15.272h-3.048V2.564h29.076V-0.479z M-87.405,14.507c0-0.108-0.029-0.199-0.078-0.266
		c-0.055-0.066-0.128-0.123-0.221-0.166c-0.094-0.043-0.198-0.078-0.31-0.105c-0.118-0.027-0.239-0.053-0.366-0.08
		c-0.171-0.038-0.327-0.079-0.483-0.132c-0.15-0.05-0.286-0.12-0.401-0.21c-0.118-0.09-0.209-0.201-0.282-0.342
		c-0.066-0.138-0.1-0.308-0.1-0.517c0-0.226,0.038-0.427,0.117-0.597c0.079-0.168,0.188-0.309,0.324-0.422
		c0.139-0.107,0.299-0.191,0.484-0.248c0.186-0.053,0.394-0.083,0.623-0.083s0.461,0.022,0.692,0.069
		c0.233,0.047,0.436,0.104,0.602,0.177v0.677c-0.223-0.09-0.436-0.15-0.645-0.189c-0.205-0.041-0.4-0.061-0.58-0.061
		c-0.261,0-0.461,0.045-0.602,0.143c-0.144,0.094-0.211,0.236-0.211,0.424c0,0.11,0.023,0.203,0.067,0.271
		c0.048,0.072,0.108,0.131,0.188,0.176c0.08,0.047,0.174,0.084,0.276,0.112s0.213,0.056,0.329,0.078
		c0.182,0.04,0.358,0.085,0.525,0.136c0.169,0.047,0.312,0.12,0.444,0.21c0.13,0.091,0.229,0.208,0.307,0.357
		c0.076,0.143,0.113,0.328,0.113,0.554c0,0.232-0.043,0.437-0.13,0.605c-0.086,0.17-0.206,0.311-0.364,0.424
		c-0.158,0.11-0.353,0.193-0.58,0.246c-0.223,0.055-0.472,0.08-0.742,0.08c-0.233,0-0.467-0.021-0.693-0.068
		c-0.228-0.047-0.416-0.113-0.566-0.195v-0.67c0.213,0.09,0.421,0.158,0.622,0.2c0.203,0.043,0.414,0.065,0.628,0.065
		c0.125,0,0.247-0.01,0.368-0.029c0.12-0.023,0.229-0.056,0.326-0.105c0.096-0.051,0.174-0.116,0.234-0.203
		C-87.435,14.737-87.405,14.632-87.405,14.507z M-76.059,15.749h-0.793v-3.664h-1.397v-0.662h3.583v0.662h-1.393V15.749z
		 M-64.584,13.284l1.152-1.861h0.881l-1.639,2.582v1.744h-0.796v-1.744l-1.64-2.582h0.883l1.147,1.861H-64.584z M-53.298,11.423
		v3.663h2.023v0.663h-2.815v-4.326H-53.298z M-41.854,15.086h2.125v0.663h-2.918v-4.326h2.802v0.662h-2.009v1.119h1.724v0.664
		h-1.724V15.086z M-20.563,14.075c-0.072,0-0.144,0-0.212-0.002c-0.069-0.006-0.134-0.008-0.195-0.016v1.691h-0.794v-4.326h1.25
		c0.209,0,0.393,0.01,0.544,0.027c0.162,0.018,0.3,0.045,0.422,0.082c0.298,0.089,0.522,0.234,0.684,0.434
		c0.16,0.197,0.238,0.451,0.238,0.757c0,0.208-0.043,0.396-0.129,0.565c-0.087,0.167-0.213,0.307-0.378,0.423
		c-0.165,0.118-0.366,0.209-0.608,0.271C-19.982,14.042-20.255,14.075-20.563,14.075z M-20.971,13.39
		c0.046,0.008,0.106,0.016,0.174,0.018c0.073,0.002,0.142,0.002,0.217,0.002c0.215,0,0.392-0.015,0.537-0.051
		c0.146-0.034,0.259-0.081,0.349-0.145c0.089-0.061,0.15-0.136,0.194-0.221c0.036-0.088,0.056-0.186,0.056-0.288
		c0-0.126-0.028-0.235-0.085-0.331c-0.061-0.09-0.161-0.161-0.305-0.213c-0.078-0.029-0.171-0.049-0.281-0.059
		c-0.113-0.01-0.248-0.018-0.409-0.018h-0.446V13.39z M-9.113,13.204h2.006v-1.781h0.793v4.326h-0.793v-1.881h-2.006v1.881h-0.792
		v-4.326h0.792V13.204z M2.603,15.749v-4.326h0.79v4.326H2.603z M13.101,11.423v3.663h2.026v0.663h-2.815v-4.326H13.101z
		 M27.512,13.585c0,0.332-0.046,0.633-0.141,0.908c-0.092,0.274-0.226,0.512-0.409,0.707c-0.179,0.199-0.402,0.355-0.663,0.463
		c-0.262,0.113-0.561,0.166-0.893,0.166c-0.334,0-0.632-0.053-0.896-0.166c-0.261-0.107-0.48-0.264-0.663-0.463
		c-0.18-0.195-0.315-0.433-0.409-0.707c-0.094-0.275-0.143-0.576-0.143-0.908c0-0.328,0.049-0.631,0.143-0.905
		c0.094-0.276,0.229-0.515,0.409-0.711c0.183-0.197,0.402-0.353,0.663-0.461c0.265-0.11,0.562-0.168,0.896-0.168
		c0.332,0,0.631,0.058,0.893,0.168c0.261,0.108,0.484,0.264,0.663,0.461c0.184,0.196,0.317,0.435,0.409,0.711
		C27.466,12.954,27.512,13.257,27.512,13.585z M26.692,13.585c0-0.264-0.03-0.49-0.098-0.689c-0.06-0.197-0.15-0.361-0.263-0.492
		c-0.117-0.133-0.255-0.23-0.41-0.295c-0.157-0.063-0.329-0.096-0.516-0.096c-0.188,0-0.363,0.032-0.518,0.096
		c-0.157,0.064-0.296,0.162-0.405,0.295c-0.115,0.131-0.206,0.295-0.274,0.492c-0.064,0.199-0.094,0.426-0.094,0.689
		s0.029,0.495,0.094,0.691c0.068,0.195,0.159,0.361,0.274,0.491c0.109,0.13,0.248,0.228,0.405,0.296
		c0.154,0.064,0.329,0.098,0.518,0.098c0.187,0,0.358-0.033,0.516-0.098c0.155-0.068,0.293-0.166,0.41-0.296
		c0.112-0.13,0.203-0.296,0.263-0.491C26.662,14.08,26.692,13.849,26.692,13.585z M38.363,14.507c0-0.108-0.027-0.199-0.08-0.266
		c-0.057-0.066-0.128-0.123-0.221-0.166c-0.09-0.043-0.195-0.078-0.312-0.105s-0.236-0.053-0.365-0.08
		c-0.166-0.038-0.325-0.079-0.482-0.132c-0.15-0.05-0.286-0.12-0.403-0.21c-0.116-0.09-0.209-0.201-0.276-0.342
		c-0.069-0.138-0.104-0.308-0.104-0.517c0-0.226,0.039-0.427,0.118-0.597c0.081-0.168,0.189-0.309,0.324-0.422
		c0.138-0.107,0.296-0.191,0.484-0.248c0.184-0.053,0.393-0.083,0.621-0.083c0.231,0,0.46,0.022,0.696,0.069
		c0.234,0.047,0.432,0.104,0.604,0.177v0.677c-0.229-0.09-0.442-0.15-0.647-0.189c-0.203-0.041-0.4-0.061-0.58-0.061
		c-0.263,0-0.462,0.045-0.603,0.143c-0.144,0.094-0.21,0.236-0.21,0.424c0,0.11,0.02,0.203,0.064,0.271
		c0.049,0.072,0.113,0.131,0.19,0.176c0.081,0.047,0.174,0.084,0.272,0.112c0.105,0.028,0.216,0.056,0.333,0.078
		c0.186,0.04,0.358,0.085,0.523,0.136c0.17,0.047,0.316,0.12,0.446,0.21c0.129,0.091,0.233,0.208,0.308,0.357
		c0.078,0.143,0.11,0.328,0.11,0.554c0,0.232-0.041,0.437-0.128,0.605c-0.086,0.17-0.207,0.311-0.364,0.424
		c-0.16,0.11-0.353,0.193-0.58,0.246c-0.224,0.055-0.473,0.08-0.742,0.08c-0.233,0-0.467-0.021-0.693-0.068
		c-0.229-0.047-0.419-0.113-0.567-0.195v-0.67c0.214,0.09,0.422,0.158,0.622,0.2c0.205,0.043,0.412,0.065,0.631,0.065
		c0.124,0,0.243-0.01,0.367-0.029c0.119-0.023,0.229-0.056,0.322-0.105c0.095-0.051,0.177-0.116,0.232-0.203
		C38.332,14.737,38.363,14.632,38.363,14.507z M51.96,13.585c0,0.332-0.047,0.633-0.139,0.908c-0.097,0.274-0.232,0.512-0.41,0.707
		c-0.183,0.199-0.403,0.355-0.665,0.463c-0.263,0.113-0.562,0.166-0.894,0.166c-0.332,0-0.634-0.053-0.892-0.166
		c-0.265-0.107-0.485-0.264-0.665-0.463c-0.181-0.195-0.315-0.433-0.412-0.707c-0.092-0.275-0.142-0.576-0.142-0.908
		c0-0.328,0.05-0.631,0.142-0.905c0.097-0.276,0.231-0.515,0.412-0.711c0.18-0.197,0.4-0.353,0.665-0.461
		c0.258-0.11,0.56-0.168,0.892-0.168c0.331,0,0.631,0.058,0.894,0.168c0.262,0.108,0.482,0.264,0.665,0.461
		c0.178,0.196,0.313,0.435,0.41,0.711C51.913,12.954,51.96,13.257,51.96,13.585z M51.146,13.585c0-0.264-0.038-0.49-0.098-0.689
		c-0.07-0.197-0.157-0.361-0.272-0.492c-0.111-0.133-0.248-0.23-0.407-0.295c-0.157-0.063-0.331-0.096-0.517-0.096
		c-0.189,0-0.358,0.032-0.519,0.096c-0.157,0.064-0.295,0.162-0.408,0.295c-0.114,0.131-0.204,0.295-0.266,0.492
		c-0.066,0.199-0.098,0.426-0.098,0.689s0.031,0.495,0.098,0.691c0.062,0.195,0.151,0.361,0.266,0.491
		c0.113,0.13,0.251,0.228,0.408,0.296c0.16,0.064,0.329,0.098,0.519,0.098c0.186,0,0.359-0.033,0.517-0.098
		c0.159-0.068,0.296-0.166,0.407-0.296c0.115-0.13,0.202-0.296,0.272-0.491C51.108,14.08,51.146,13.849,51.146,13.585z
		 M61.877,14.075c-0.067,0-0.141,0-0.21-0.002c-0.068-0.006-0.131-0.008-0.194-0.016v1.691h-0.791v-4.326h1.25
		c0.208,0,0.39,0.01,0.549,0.027c0.155,0.018,0.292,0.045,0.418,0.082c0.294,0.089,0.522,0.234,0.682,0.432
		c0.159,0.199,0.239,0.453,0.239,0.759c0,0.208-0.042,0.396-0.13,0.565c-0.082,0.167-0.213,0.307-0.379,0.423
		c-0.166,0.118-0.369,0.209-0.607,0.271C62.465,14.042,62.189,14.075,61.877,14.075z M61.473,13.39
		c0.047,0.008,0.104,0.016,0.174,0.018c0.071,0.002,0.144,0.002,0.221,0.002c0.211,0,0.393-0.015,0.536-0.051
		c0.142-0.034,0.259-0.081,0.348-0.145c0.089-0.061,0.154-0.136,0.19-0.221c0.04-0.088,0.062-0.186,0.062-0.288
		c0-0.126-0.033-0.235-0.09-0.331c-0.06-0.09-0.158-0.161-0.304-0.213c-0.076-0.029-0.169-0.049-0.279-0.059
		c-0.111-0.01-0.247-0.018-0.412-0.018h-0.445V13.39z M73.333,13.204h2.002v-1.781h0.796v4.326h-0.796v-1.882h-2.002v1.882h-0.794
		v-4.326h0.794V13.204z M86.632,13.284l1.151-1.861h0.881l-1.641,2.582v1.744h-0.794v-1.744l-1.638-2.582h0.881l1.149,1.861H86.632z
		 M74.624,3.052c-4.632,0-7.581-0.029-11.409-0.083c-2.465-0.032-4.329-1.905-4.329-4.351l-0.002-9.939
		c0-2.45,1.896-4.393,4.327-4.428c3.863-0.053,6.824-0.08,11.412-0.08c4.562,0,7.521,0.027,11.386,0.08
		c2.421,0.033,4.324,1.978,4.324,4.424l0.007,9.943c0,2.446-1.86,4.318-4.329,4.351C82.183,3.022,79.238,3.052,74.624,3.052z
		 M74.623-12.786c-4.564,0-7.521,0.027-11.371,0.081c-0.91,0.016-1.327,0.726-1.327,1.38l0.008,9.943
		c0,0.783,0.518,1.295,1.322,1.305c3.814,0.056,6.756,0.083,11.369,0.083c4.597,0,7.532-0.027,11.344-0.083
		c0.801-0.01,1.325-0.522,1.325-1.305l-0.007-9.939c0-0.658-0.414-1.368-1.323-1.384C82.115-12.759,79.168-12.786,74.623-12.786z
		 M-51.586,2.623h-3.066v-13.622c0-2.448,1.861-4.315,4.326-4.351c3.717-0.053,5.959-0.083,10.694-0.083
		c4.491,0,6.744,0.027,10.663,0.083c2.471,0.035,4.326,1.902,4.326,4.351V2.623h-3.043v-7.56h-23.9V2.623z M-51.609-7.98h23.924
		v-3.019c0-0.782-0.52-1.295-1.325-1.307c-3.9-0.053-6.149-0.084-10.621-0.084c-4.715,0-6.95,0.033-10.647,0.084
		c-0.807,0.012-1.33,0.524-1.33,1.307V-7.98z M13.892-9.087c0.007-0.061,0.017-0.123,0.026-0.184
		c0.005-0.057,0.015-0.109,0.023-0.162c0.014-0.154,0.021-0.312,0.021-0.47v-0.521c0-1.325-0.514-2.573-1.451-3.506
		c-0.938-0.938-2.181-1.456-3.511-1.456l0,0c-6.797,0.018-24.048,0-24.22,0h-1.525V2.558h3.048v-7.494H8.864
		c0.007,0.002,0.007,0.002,0.012,0.005c1.127,0.003,2.045,1.083,2.045,2.419c0,0.029-0.011,0.06-0.011,0.088
		c0.008,0.135,0.011,0.275,0.011,0.418v4.574h3.042v-4.484c-0.005-3.369-1.747-4.402-1.747-4.402
		C13.354-7.134,13.751-8.307,13.892-9.087z M10.921-9.902c0,0.74-0.425,1.374-1.035,1.694l0,0c-0.003,0-0.003,0-0.005,0H9.878
		C9.585-8.048,9.16-7.98,9.16-7.98H6.917L6.92-7.985L-13.696-7.98v-4.358c4.389,0.005,17.096,0.01,22.699,0
		c1.057,0,1.918,0.857,1.918,1.915V-9.902z M51.956-9.087c0.01-0.061,0.023-0.123,0.03-0.184C51.994-9.327,52-9.38,52.008-9.433
		c0.012-0.154,0.024-0.312,0.024-0.47v-0.521c0-1.325-0.519-2.573-1.457-3.506c-0.936-0.938-2.18-1.456-3.51-1.456l0,0
		c-6.796,0.018-24.043,0-24.217,0h-1.521V2.558h3.045v-7.494h22.556c0.007,0.002,0.007,0.002,0.011,0.005
		c1.131,0.003,2.046,1.083,2.046,2.419c0,0.029-0.009,0.06-0.009,0.088c0.009,0.135,0.009,0.275,0.009,0.418v4.574h3.047v-4.484
		c-0.012-3.369-1.749-4.402-1.749-4.402C51.419-7.134,51.815-8.307,51.956-9.087z M48.985-9.902c0,0.74-0.422,1.374-1.033,1.694l0,0
		c-0.003,0-0.005,0-0.009,0l0,0c-0.294,0.16-0.712,0.228-0.712,0.228h-2.245l0.002-0.005L24.373-7.98v-4.358
		c4.387,0.005,17.09,0.01,22.694,0c1.061,0,1.918,0.857,1.918,1.915V-9.902z"/>
</symbol>
</svg>
