<svg version="1.1"  xmlns="http://www.w3.org/2000/svg" xmlns:xlink="http://www.w3.org/1999/xlink" x="0px" y="0px"
	 width="27.308px" height="17.067px" viewBox="0 0 27.308 17.067" enable-background="new 0 0 27.308 17.067" xml:space="preserve">
<symbol  id="global_menu" viewBox="-13.654 -8.534 27.309 17.067">
	<path d="M13.654,7.965c0-0.314-0.254-0.569-0.568-0.569h-26.171c-0.313,0-0.568,0.255-0.568,0.569c0,0.313,0.255,0.568,0.568,0.568
		h26.171C13.4,8.534,13.654,8.279,13.654,7.965z M13.086,0.569h-26.171c-0.313,0-0.568-0.255-0.568-0.569s0.255-0.569,0.568-0.569
		h26.171c0.314,0,0.568,0.254,0.568,0.569S13.4,0.569,13.086,0.569z M13.086-7.397h-26.171c-0.313,0-0.568-0.254-0.568-0.568
		c0-0.313,0.255-0.568,0.568-0.568h26.171c0.314,0,0.568,0.255,0.568,0.568C13.654-7.651,13.4-7.397,13.086-7.397z"/>
</symbol>
</svg>
