<svg width="48" height="48" viewBox="0 0 48 48" fill="none" xmlns="http://www.w3.org/2000/svg">
<path fill-rule="evenodd" clip-rule="evenodd" d="M23.7354 0C13.8428 0.000940338 6.98806 0.0338522 3.46947 3.46985C0.0336545 6.98765 0.000735498 14.1643 0.000735498 23.7351C10.628 23.4144 15.4878 23.1483 19.3638 19.3634C23.1485 15.4874 23.4147 10.6277 23.7354 0ZM3.46886 44.5305C0.0330411 41.0127 0.00012207 33.8361 0.00012207 24.2653C10.6274 24.586 15.4872 24.8521 19.3632 28.637C23.1479 32.513 23.4141 37.3727 23.7348 47.9995C13.8422 47.9995 6.98745 47.9675 3.46886 44.5305ZM24.2653 47.9995C24.586 37.3727 24.8522 32.513 28.637 28.637C32.5129 24.8521 37.3727 24.586 48 24.2653C47.999 33.8361 47.9661 41.0127 44.5303 44.5305C41.0117 47.9675 34.158 47.9995 24.2653 47.9995ZM24.2653 0C24.586 10.6277 24.8522 15.4874 28.637 19.3634C32.5129 23.1483 37.3727 23.4144 48 23.7351C47.999 14.1643 47.9661 6.98765 44.5303 3.46985C41.0117 0.0338522 34.158 0.000940338 24.2653 0Z" fill="#2C3036"/>
<path fill-rule="evenodd" clip-rule="evenodd" d="M28.637 28.637C24.8522 32.513 24.586 37.3727 24.2653 47.9995C34.158 47.9995 41.0117 47.9675 44.5303 44.5305C47.9661 41.0127 47.999 33.8361 48 24.2653C37.3728 24.586 32.5129 24.8521 28.637 28.637ZM0.00012207 24.2653C0.00012207 33.8361 0.0330411 41.0127 3.46886 44.5305C6.98745 47.9675 13.8422 47.9995 23.7348 47.9995C23.4141 37.3727 23.1479 32.513 19.3632 28.637C15.4872 24.8521 10.6274 24.586 0.00012207 24.2653ZM23.7354 0C13.8428 0.000940338 6.98806 0.0338522 3.46947 3.46985C0.0336545 6.98765 0.000735498 14.1643 0.000735498 23.7351C10.628 23.4144 15.4878 23.1483 19.3638 19.3634C23.1485 15.4874 23.4147 10.6277 23.7354 0ZM28.637 19.3634C24.8522 15.4874 24.586 10.6277 24.2653 0C34.158 0.000940338 41.0117 0.0338522 44.5303 3.46985C47.9661 6.98765 47.999 14.1643 48 23.7351C37.3728 23.4144 32.5129 23.1483 28.637 19.3634Z" fill="url(#paint0_linear)"/>
<path fill-rule="evenodd" clip-rule="evenodd" d="M47.9999 24.2655V24.0003V23.736C37.3726 23.4144 32.5128 23.1493 28.6368 19.3635C24.8521 15.4883 24.5859 10.6287 24.2652 0.000976562H23.9999H23.7347C23.414 10.6287 23.1478 15.4883 19.363 19.3635C15.487 23.1493 10.6272 23.4144 0 23.736V24.0003V24.2655C10.6272 24.587 15.487 24.8522 19.363 28.6371C23.1478 32.5132 23.414 37.3728 23.7347 48.0005H23.9999H24.2652C24.5859 37.3728 24.8521 32.5132 28.6368 28.6371C32.5128 24.8522 37.3726 24.587 47.9999 24.2655Z" fill="white"/>
<defs>
<linearGradient id="paint0_linear" x1="48" y1="47.9995" x2="48" y2="0" gradientUnits="userSpaceOnUse">
<stop stop-color="white" stop-opacity="0.01"/>
<stop offset="0.47509" stop-color="white" stop-opacity="0.01"/>
<stop offset="0.76042" stop-color="white" stop-opacity="0.04271"/>
<stop offset="0.99531" stop-color="white" stop-opacity="0.09855"/>
<stop offset="1" stop-color="white" stop-opacity="0.1"/>
</linearGradient>
</defs>
</svg>
