<svg xmlns="http://www.w3.org/2000/svg" style="display: none;">    
    <symbol id="{{getCssClass}}_icon_cross" viewBox="0 0 414.298 414.299">        
        <path d="M3.663,410.637c2.441,2.44,5.64,3.661,8.839,3.661c3.199,0,6.398-1.221,8.839-3.661l185.809-185.81l185.81,185.811 c2.44,2.44,5.641,3.661,8.84,3.661c3.198,0,6.397-1.221,8.839-3.661c4.881-4.881,4.881-12.796,0-17.679l-185.811-185.81 l185.811-185.81c4.881-4.882,4.881-12.796,0-17.678c-4.882-4.882-12.796-4.882-17.679,0l-185.81,185.81L21.34,3.663 c-4.882-4.882-12.796-4.882-17.678,0c-4.882,4.881-4.882,12.796,0,17.678l185.81,185.809L3.663,392.959 C-1.219,397.841-1.219,405.756,3.663,410.637z"/>
    </symbol>
</svg>
<svg xmlns="http://www.w3.org/2000/svg" style="display: none;">
    <symbol id="{{getCssClass}}_icon_html" viewBox="0 0 32 32">
        <polygon style="fill:#010002;" points="22,6 22,10 28,16 22,22 22,26 32,16 "/>
        <polygon style="fill:#010002;" points="10,10 10,6 0,16 10,26 10,22 4,16 "/>
        <polygon style="fill:#010002;" points="18,12 10,20 14,20 22,12 "/>
    </symbol>
</svg>
<svg xmlns="http://www.w3.org/2000/svg" style="display: none;">
    <symbol id="{{getCssClass}}_icon_remove" viewBox="0 0 414.298 414.299">        
        <path d="M3.663,410.637c2.441,2.44,5.64,3.661,8.839,3.661c3.199,0,6.398-1.221,8.839-3.661l185.809-185.81l185.81,185.811 c2.44,2.44,5.641,3.661,8.84,3.661c3.198,0,6.397-1.221,8.839-3.661c4.881-4.881,4.881-12.796,0-17.679l-185.811-185.81 l185.811-185.81c4.881-4.882,4.881-12.796,0-17.678c-4.882-4.882-12.796-4.882-17.679,0l-185.81,185.81L21.34,3.663 c-4.882-4.882-12.796-4.882-17.678,0c-4.882,4.881-4.882,12.796,0,17.678l185.81,185.809L3.663,392.959 C-1.219,397.841-1.219,405.756,3.663,410.637z"/>
    </symbol>
    <symbol id="{{getCssClass}}_icon_crop" viewBox="0 0 375 375">        
        <path d="M362.5,284.094h-53.406V83.584l42.91-42.91c4.881-4.882,4.881-12.796,0-17.678c-4.881-4.881-12.797-4.881-17.678,0 l-42.91,42.91H90.906V12.5c0-6.903-5.597-12.5-12.5-12.5c-6.903,0-12.5,5.597-12.5,12.5v53.406H12.5c-6.903,0-12.5,5.597-12.5,12.5 c0,6.903,5.597,12.5,12.5,12.5h53.406v205.688c0,6.903,5.597,12.5,12.5,12.5h205.688V362.5c0,6.903,5.597,12.5,12.5,12.5 s12.5-5.597,12.5-12.5v-53.406H362.5c6.902,0,12.5-5.597,12.5-12.5C375,289.691,369.402,284.094,362.5,284.094z M266.416,90.906 l-175.51,175.51V90.906H266.416z M108.584,284.094l175.51-175.51v175.51H108.584z"/>
    </symbol>    
</svg>