<svg xmlns="http://www.w3.org/2000/svg" style="display: none;">
    <symbol id="basket_icon_arrow_down" viewBox="0 0 487.958 487.958">        
        <path d="M483.058,215.613l-215.5-177.6c-4-3.3-9.6-4-14.3-1.8c-4.7,2.2-7.7,7-7.7,12.2v93.6c-104.6,3.8-176.5,40.7-213.9,109.8 c-32.2,59.6-31.9,130.2-31.6,176.9c0,3.8,0,7.4,0,10.8c0,6.1,4.1,11.5,10.1,13.1c1.1,0.3,2.3,0.4,3.4,0.4c4.8,0,9.3-2.5,11.7-6.8 c73-128.7,133.1-134.9,220.2-135.2v93.3c0,5.2,3,10,7.8,12.2s10.3,1.5,14.4-1.8l215.4-178.2c3.1-2.6,4.9-6.4,4.9-10.4 S486.158,218.213,483.058,215.613z M272.558,375.613v-78.1c0-3.6-1.4-7-4-9.5c-2.5-2.5-6-4-9.5-4c-54.4,0-96.1,1.5-136.6,20.4 c-35,16.3-65.3,44-95.2,87.5c1.2-39.7,6.4-87.1,28.1-127.2c34.4-63.6,101-95.1,203.7-96c7.4-0.1,13.4-6.1,13.4-13.5v-78.2 l180.7,149.1L272.558,375.613z"/>
    </symbol>
    <symbol id="basket_icon_user" viewBox="0 0 563.43 563.43">        
        <path d="M280.79,314.559c83.266,0,150.803-67.538,150.803-150.803S364.055,13.415,280.79,13.415S129.987,80.953,129.987,163.756 S197.524,314.559,280.79,314.559z M280.79,52.735c61.061,0,111.021,49.959,111.021,111.021S341.851,274.776,280.79,274.776 s-111.021-49.959-111.021-111.021S219.728,52.735,280.79,52.735z"/>
        <path d="M19.891,550.015h523.648c11.102,0,19.891-8.789,19.891-19.891c0-104.082-84.653-189.198-189.198-189.198H189.198 C85.116,340.926,0,425.579,0,530.124C0,541.226,8.789,550.015,19.891,550.015z M189.198,380.708h185.034 c75.864,0,138.313,56.436,148.028,129.524H41.17C50.884,437.607,113.334,380.708,189.198,380.708z"/>
    </symbol>
</svg>
<svg xmlns="http://www.w3.org/2000/svg" style="display: none;">
    <symbol id="basket_icon_plus" viewBox="0 0 42 42">        
        <polygon points="42,20 22,20 22,0 20,0 20,20 0,20 0,22 20,22 20,42 22,42 22,22 42,22 "/>
    </symbol>
    <symbol id="basket_icon_minus" viewBox="0 0 455 455">        
        <rect y="212.5" width="455" height="30"/>
    </symbol>
</svg>
<svg xmlns="http://www.w3.org/2000/svg" style="display: none;">
    <symbol id="basket_icon_arrow_down_address" viewBox="0 0 255 255">        
        <polygon points="0,63.75 127.5,191.25 255,63.75 "/>
    </symbol>
</svg>