<svg version="1.1" xmlns="http://www.w3.org/2000/svg" xmlns:xlink="http://www.w3.org/1999/xlink" x="0px" y="0px"
	 width="512px" height="512px" viewBox="0 0 512 512" enable-background="new 0 0 512 512" xml:space="preserve">
<symbol  id="product_share_ig" viewBox="-256 -256 512 512">
	<radialGradient id="SVGID_1_product_share_ig" cx="-151.043" cy="191.4473" r="564.6459" gradientUnits="userSpaceOnUse">
		<stop  offset="0" style="stop-color:#FAE100"/>
		<stop  offset="0.0544" style="stop-color:#FADC04"/>
		<stop  offset="0.1167" style="stop-color:#FBCE0E"/>
		<stop  offset="0.1829" style="stop-color:#FCB720"/>
		<stop  offset="0.2514" style="stop-color:#FE9838"/>
		<stop  offset="0.3054" style="stop-color:#FF7950"/>
		<stop  offset="0.4922" style="stop-color:#FF1C74"/>
		<stop  offset="1" style="stop-color:#6C1CD1"/>
	</radialGradient>
	<path fill="url(#SVGID_1_product_share_ig)" d="M247.234,164.418c-4.66,43.668-39.145,78.156-82.812,82.816
		c-109.508,11.688-219.34,11.688-328.844,0c-43.664-4.66-78.152-39.148-82.812-82.816c-11.688-109.504-11.688-219.336,0-328.84
		c4.66-43.664,39.148-78.152,82.816-82.812c109.504-11.688,219.332-11.688,328.84,0c43.667,4.656,78.152,39.148,82.812,82.812
		C258.922-54.914,258.922,54.914,247.234,164.418z M219.387,145.899c-4.133,38.75-34.738,69.354-73.488,73.487
		c-97.168,10.371-194.628,10.371-291.8,0c-38.746-4.133-69.351-34.737-73.488-73.487c-10.367-97.168-10.367-194.63,0-291.802
		c4.136-38.746,34.742-69.351,73.488-73.487c97.172-10.367,194.632-10.367,291.804,0c38.75,4.136,69.352,34.741,73.484,73.487
		C229.758-48.73,229.758,48.73,219.387,145.899z M248.332,153.805c-0.355,3.539-0.719,7.078-1.098,10.617
		c-4.66,43.664-39.145,78.152-82.812,82.812c-109.504,11.688-219.336,11.688-328.84,0c-43.668-4.66-78.156-39.148-82.816-82.812
		c-0.379-3.539-0.742-7.078-1.094-10.617H248.332z M164.424,247.234c-58.363,6.23-116.812,9.137-175.258,8.727l-119.094-119.09
		c-16.949-14.926-27.535-36.988-29.254-62.746c-0.27-4.047-1.137-8.051-1.727-12.074V-62.097c1.066-7.531,1.879-15.105,3.234-22.582
		c7.687-42.349,37.664-71.16,80.531-72.638c51.613-1.773,103.382-1.866,154.988-0.008c25.094,0.903,46.449,11.321,61.07,28.013
		l117.031,117.03c0.469,58.926-2.43,117.859-8.711,176.699C242.574,208.086,208.09,242.574,164.424,247.234z M255.949-12.277
		L138.991-129.234c12.53,14.335,20.09,33.281,20.754,54.812c1.555,49.555,1.555,99.238,0,148.793
		c-1.457,46.672-35.229,81.214-81.902,82.902c-51.601,1.859-103.382,1.91-154.984-0.027c-20.851-0.785-38.82-8.133-52.605-20.199
		l118.914,118.914c58.438,0.41,116.898-2.5,175.254-8.727c43.66-4.656,78.156-39.152,82.812-82.812
		C253.512,105.582,256.41,46.641,255.949-12.277z M250.15,134.297c-0.875,10.043-1.848,20.086-2.918,30.121
		c-4.659,43.668-39.147,78.156-82.815,82.816c-10.035,1.069-20.078,2.043-30.121,2.918L-55.442,60.414
		C-71.766,45.422-82.008,23.91-82.008,0c0-45.289,36.719-82.008,82.008-82.008c23.91,0,45.422,10.242,60.414,26.566L250.15,134.297z
		 M252.277,107.047L74.996-70.238c-4.676-3.562-7.711-9.176-7.711-15.508c0-10.778,8.738-19.512,19.512-19.512
		c6.332,0,11.946,3.035,15.508,7.711L255.008,55.152C254.391,72.453,253.48,89.754,252.277,107.047z M-160.911,62.046
		c0.59,4.023,1.457,8.031,1.727,12.074c3.121,46.742,35.379,81.367,82.043,83.121c51.601,1.937,103.383,1.89,154.989,0.026
		c46.664-1.683,80.44-36.226,81.897-82.897c1.551-49.56,1.551-99.238,0-148.797c-1.457-46.671-35.246-81.218-81.902-82.898
		c-51.604-1.858-103.375-1.765-154.988,0.008c-42.867,1.478-72.847,30.289-80.531,72.638c-1.355,7.477-2.168,15.051-3.234,22.582
		C-160.91-20.719-160.91,20.664-160.911,62.046z M-69.914,129.445c-36.687-1.359-59.5-22.978-60.496-59.504
		c-1.266-46.618-1.266-93.317,0-139.935c0.996-36.532,23.808-58.66,60.492-59.43c46.918-0.984,93.887-0.992,140.805,0
		c36.965,0.786,59.727,23.371,60.59,60.309c1.07,46.039,1.07,92.138,0,138.172c-0.863,36.946-23.609,59.017-60.59,60.388
		c-23.586,0.871-47.227,0.164-70.844,0.164C-23.277,129.609-46.625,130.312-69.914,129.445z"/>
	<g>
		<path fill="#FFFFFF" d="M-160.91,64.296c0.591,4.023,1.457,8.031,1.728,12.074c3.121,46.742,35.379,81.367,82.043,83.121
			c51.601,1.937,103.383,1.89,154.989,0.026c46.664-1.683,80.439-36.226,81.896-82.897c1.551-49.56,1.551-99.238,0-148.797
			c-1.457-46.671-35.246-81.218-81.902-82.898c-51.604-1.858-103.375-1.765-154.987,0.008
			c-42.867,1.478-72.848,30.289-80.531,72.638c-1.355,7.477-2.168,15.051-3.234,22.582
			C-160.909-18.469-160.909,22.914-160.91,64.296z M-69.913,131.695c-36.688-1.359-59.5-22.978-60.496-59.504
			c-1.266-46.618-1.266-93.317,0-139.935c0.996-36.532,23.809-58.66,60.492-59.43c46.918-0.984,93.887-0.992,140.805,0
			c36.965,0.786,59.727,23.371,60.59,60.309c1.07,46.039,1.07,92.138,0,138.172c-0.863,36.946-23.609,59.017-60.59,60.388
			c-23.586,0.871-47.227,0.164-70.844,0.164C-23.276,131.859-46.624,132.562-69.913,131.695z"/>
		<path fill="#FFFFFF" d="M82.01,2.25c0,45.293-36.715,82.008-82.008,82.008c-45.289,0-82.008-36.715-82.008-82.008
			c0-45.289,36.719-82.004,82.008-82.004C45.295-79.754,82.01-43.039,82.01,2.25z M53.775,2.25
			c0-29.699-24.074-53.773-53.774-53.773c-29.699,0-53.773,24.074-53.773,53.773s24.074,53.773,53.773,53.773
			C29.701,56.023,53.775,31.949,53.775,2.25z"/>
		<path fill="#FFFFFF" d="M86.799-103.008c-10.773,0-19.512,8.734-19.512,19.512c0,10.774,8.738,19.508,19.512,19.508
			s19.508-8.734,19.508-19.508C106.307-94.273,97.572-103.008,86.799-103.008z"/>
	</g>
</symbol>
</svg>
