<svg version="1.1"  xmlns="http://www.w3.org/2000/svg" xmlns:xlink="http://www.w3.org/1999/xlink" x="0px" y="0px"
	 width="512px" height="512px" viewBox="0 0 512 512" enable-background="new 0 0 512 512" xml:space="preserve">
<symbol  id="insta" viewBox="-256 -256 512 512">
		<radialGradient id="SVGID_1_" cx="-235.043" cy="-16166.5527" r="564.6459" gradientTransform="matrix(1 0 0 -1 84 -16358)" gradientUnits="userSpaceOnUse">
		<stop  offset="0" style="stop-color:#FAE100"/>
		<stop  offset="0.0544" style="stop-color:#FADC04"/>
		<stop  offset="0.1167" style="stop-color:#FBCE0E"/>
		<stop  offset="0.1829" style="stop-color:#FCB720"/>
		<stop  offset="0.2514" style="stop-color:#FE9838"/>
		<stop  offset="0.3054" style="stop-color:#FF7950"/>
		<stop  offset="0.4922" style="stop-color:#FF1C74"/>
		<stop  offset="1" style="stop-color:#6C1CD1"/>
	</radialGradient>
	<path fill="url(#SVGID_1_)" d="M247.234,164.422c-4.66,43.664-39.145,78.156-82.812,82.812
		c-109.508,11.688-219.336,11.688-328.84,0c-43.668-4.66-78.156-39.148-82.816-82.812c-11.688-109.504-11.688-219.336,0-328.84
		c4.66-43.668,39.148-78.156,82.812-82.816c109.504-11.688,219.336-11.688,328.844,0c43.668,4.66,78.152,39.148,82.812,82.816
		C258.922-54.914,258.922,54.914,247.234,164.422z"/>
	
		<linearGradient id="SVGID_2_" gradientUnits="userSpaceOnUse" x1="-143.627" y1="-16391.541" x2="-1011.0162" y2="-16879.4473" gradientTransform="matrix(1 0 0 -1 84 -16358)">
		<stop  offset="0" style="stop-color:#A1B5D8;stop-opacity:0"/>
		<stop  offset="0.3094" style="stop-color:#90A2BD;stop-opacity:0.3098"/>
		<stop  offset="0.7554" style="stop-color:#7C8B9C;stop-opacity:0.7569"/>
		<stop  offset="1" style="stop-color:#748290"/>
	</linearGradient>
	<path fill="url(#SVGID_2_)" d="M219.387,145.902c-4.133,38.746-34.734,69.352-73.484,73.488
		c-97.172,10.367-194.633,10.367-291.805,0c-38.746-4.137-69.352-34.742-73.488-73.488c-10.367-97.172-10.367-194.633,0-291.801
		c4.137-38.75,34.742-69.355,73.488-73.488c97.172-10.371,194.633-10.371,291.801,0c38.75,4.133,69.355,34.738,73.488,73.488
		C229.758-48.73,229.758,48.73,219.387,145.902z"/>
	
		<linearGradient id="SVGID_3_" gradientUnits="userSpaceOnUse" x1="-83.998" y1="-16162.0342" x2="-83.998" y2="-16082.2266" gradientTransform="matrix(1 0 0 -1 84 -16358)">
		<stop  offset="0" style="stop-color:#FAE100;stop-opacity:0"/>
		<stop  offset="0.3068" style="stop-color:#FCA800;stop-opacity:0.3059"/>
		<stop  offset="0.6275" style="stop-color:#FE7300;stop-opacity:0.6275"/>
		<stop  offset="0.8685" style="stop-color:#FF5200;stop-opacity:0.8667"/>
		<stop  offset="1" style="stop-color:#FF4500"/>
	</linearGradient>
	<path fill="url(#SVGID_3_)" d="M-248.328-153.805c0.352-3.539,0.715-7.078,1.094-10.617c4.66-43.664,39.148-78.152,82.816-82.812
		c109.504-11.688,219.336-11.688,328.84,0c43.668,4.66,78.152,39.148,82.812,82.812c0.379,3.539,0.742,7.078,1.098,10.617H-248.328z
		"/>
	
		<linearGradient id="SVGID_4_" gradientUnits="userSpaceOnUse" x1="-113.1289" y1="-16387.8516" x2="-239.8408" y2="-16514.5645" gradientTransform="matrix(1 0 0 -1 84 -16358)">
		<stop  offset="0" style="stop-color:#833AB4;stop-opacity:0"/>
		<stop  offset="1" style="stop-color:#833AB4"/>
	</linearGradient>
	<path fill="url(#SVGID_4_)" d="M247.234-164.418c6.281,58.84,9.18,117.773,8.711,176.699L138.914,129.312
		c-14.621,16.691-35.977,27.109-61.07,28.012c-51.605,1.859-103.375,1.766-154.988-0.008c-42.867-1.477-72.844-30.289-80.531-72.637
		c-1.355-7.477-2.168-15.051-3.234-22.582V-62.051c0.59-4.023,1.457-8.027,1.727-12.074c1.719-25.758,12.305-47.82,29.254-62.746
		l119.094-119.09c58.445-0.41,116.895,2.496,175.258,8.727C208.09-242.574,242.574-208.086,247.234-164.418z"/>
	
		<linearGradient id="SVGID_5_" gradientUnits="userSpaceOnUse" x1="10.8994" y1="-16145.7119" x2="-52.3447" y2="-16443.8613" gradientTransform="matrix(1 0 0 -1 84 -16358)">
		<stop  offset="0" style="stop-color:#833AB4;stop-opacity:0"/>
		<stop  offset="1" style="stop-color:#833AB4"/>
	</linearGradient>
	<path fill="url(#SVGID_5_)" d="M247.234-164.422c-4.656-43.66-39.152-78.156-82.812-82.812
		c-58.355-6.227-116.816-9.137-175.254-8.727l-118.914,118.914c13.785-12.066,31.754-19.414,52.605-20.199
		c51.602-1.938,103.383-1.887,154.984-0.027c46.672,1.688,80.445,36.23,81.902,82.902c1.555,49.555,1.555,99.238,0,148.793
		c-0.664,21.531-8.223,40.477-20.754,54.812L255.949,12.277C256.41-46.641,253.512-105.582,247.234-164.422z"/>
	
		<linearGradient id="SVGID_6_" gradientUnits="userSpaceOnUse" x1="34.9658" y1="-16239.0342" x2="-219.0583" y2="-16493.0586" gradientTransform="matrix(1 0 0 -1 84 -16358)">
		<stop  offset="0" style="stop-color:#833AB4;stop-opacity:0"/>
		<stop  offset="1" style="stop-color:#833AB4"/>
	</linearGradient>
	<path fill="url(#SVGID_6_)" d="M60.414,55.441C45.422,71.766,23.91,82.008,0,82.008c-45.289,0-82.008-36.719-82.008-82.008
		c0-23.91,10.242-45.422,26.566-60.414l189.738-189.738c10.043,0.875,20.086,1.848,30.121,2.918
		c43.668,4.66,78.156,39.148,82.816,82.816c1.07,10.035,2.043,20.078,2.918,30.121L60.414,55.441z"/>
	
		<linearGradient id="SVGID_7_" gradientUnits="userSpaceOnUse" x1="53.8062" y1="-16392.7383" x2="-30.1948" y2="-16476.7383" gradientTransform="matrix(1 0 0 -1 84 -16358)">
		<stop  offset="0" style="stop-color:#833AB4;stop-opacity:0"/>
		<stop  offset="1" style="stop-color:#833AB4"/>
	</linearGradient>
	<path fill="url(#SVGID_7_)" d="M255.008-55.152L102.305,97.547c-3.562,4.676-9.176,7.711-15.508,7.711
		c-10.773,0-19.512-8.734-19.512-19.512c0-6.332,3.035-11.945,7.711-15.508l177.281-177.285
		C253.48-89.754,254.391-72.453,255.008-55.152z"/>
	
		<linearGradient id="SVGID_8_" gradientUnits="userSpaceOnUse" x1="17.6572" y1="-16458.9492" x2="-189.4589" y2="-16251.833" gradientTransform="matrix(1 0 0 -1 84 -16358)">
		<stop  offset="0" style="stop-color:#833AB4"/>
		<stop  offset="0.0922" style="stop-color:#9C3495"/>
		<stop  offset="0.2927" style="stop-color:#DC2546"/>
		<stop  offset="0.392" style="stop-color:#FD1D1D"/>
		<stop  offset="0.5589" style="stop-color:#FC6831"/>
		<stop  offset="0.6887" style="stop-color:#FC9B40"/>
		<stop  offset="0.7521" style="stop-color:#FCAF45"/>
		<stop  offset="0.7806" style="stop-color:#FDB750"/>
		<stop  offset="0.8656" style="stop-color:#FECB6A"/>
		<stop  offset="0.9415" style="stop-color:#FFD87A"/>
		<stop  offset="1" style="stop-color:#FFDC80"/>
	</linearGradient>
	<path fill="url(#SVGID_8_)" d="M-160.91,62.098c1.066,7.531,1.879,15.105,3.234,22.582c7.684,42.348,37.664,71.16,80.531,72.637
		c51.613,1.773,103.383,1.867,154.988,0.008c46.656-1.68,80.445-36.227,81.902-82.898c1.551-49.559,1.551-99.238,0-148.797
		c-1.457-46.672-35.234-81.215-81.898-82.898c-51.605-1.863-103.387-1.91-154.988,0.027c-46.664,1.754-78.922,36.379-82.043,83.121
		c-0.27,4.043-1.137,8.051-1.727,12.074C-160.91-20.664-160.91,20.719-160.91,62.098z M0.043-129.609
		c23.617,0,47.258-0.707,70.844,0.164c36.98,1.371,59.727,23.441,60.59,60.387c1.07,46.035,1.07,92.133,0,138.172
		c-0.863,36.938-23.625,59.523-60.59,60.309c-46.918,0.992-93.887,0.984-140.805,0c-36.684-0.77-59.496-22.898-60.492-59.43
		c-1.266-46.617-1.266-93.316,0-139.934c0.996-36.527,23.809-58.145,60.496-59.504C-46.625-130.312-23.277-129.609,0.043-129.609z"
		/>
	<g>
		<path fill="#FFFFFF" d="M-160.91,62.098c1.066,7.531,1.879,15.105,3.234,22.582c7.684,42.348,37.664,71.16,80.531,72.637
			c51.613,1.773,103.383,1.867,154.988,0.008c46.656-1.68,80.445-36.227,81.902-82.898c1.551-49.559,1.551-99.238,0-148.797
			c-1.457-46.672-35.234-81.215-81.898-82.898c-51.605-1.863-103.387-1.91-154.988,0.027c-46.664,1.754-78.922,36.379-82.043,83.121
			c-0.27,4.043-1.137,8.051-1.727,12.074C-160.91-20.664-160.91,20.719-160.91,62.098z M0.043-129.609
			c23.617,0,47.258-0.707,70.844,0.164c36.98,1.371,59.727,23.441,60.59,60.387c1.07,46.035,1.07,92.133,0,138.172
			c-0.863,36.938-23.625,59.523-60.59,60.309c-46.918,0.992-93.887,0.984-140.805,0c-36.684-0.77-59.496-22.898-60.492-59.43
			c-1.266-46.617-1.266-93.316,0-139.934c0.996-36.527,23.809-58.145,60.496-59.504C-46.625-130.312-23.277-129.609,0.043-129.609z"
			/>
		<path fill="#FFFFFF" d="M0,82.004c-45.289,0-82.008-36.715-82.008-82.004c0-45.293,36.719-82.008,82.008-82.008
			c45.293,0,82.008,36.715,82.008,82.008C82.008,45.289,45.293,82.004,0,82.004z M0-53.773c-29.699,0-53.773,24.074-53.773,53.773
			S-29.699,53.773,0,53.773S53.773,29.699,53.773,0S29.699-53.773,0-53.773z"/>
		<path fill="#FFFFFF" d="M106.305,85.746c0-10.773-8.734-19.508-19.508-19.508s-19.512,8.734-19.512,19.508
			c0,10.777,8.738,19.512,19.512,19.512S106.305,96.523,106.305,85.746z"/>
	</g>
</symbol>
</svg>
