<svg xmlns="http://www.w3.org/2000/svg" style="display: none;">
    <symbol id="{{getCssClass}}_icon_zoom_in" viewBox="0 0 42 42">        
        <polygon points="42,20 22,20 22,0 20,0 20,20 0,20 0,22 20,22 20,42 22,42 22,22 42,22 "/>
    </symbol>
    <symbol id="{{getCssClass}}_icon_zoom_out" viewBox="0 0 42 42">        
        <rect y="19" width="42" height="4"/>
    </symbol>
    <symbol id="{{getCssClass}}_icon_crop" viewBox="0 0 612 612">        
        <path d="M592.875,497.25H535.5V172.125l-38.25,38.25V497.25H140.989L558.698,61.219l-27.042-27.043L114.75,469.366V114.75 h268.133l35.209-38.25H114.75V19.125C114.75,8.568,106.182,0,95.625,0S76.5,8.568,76.5,19.125V76.5H19.125 C8.568,76.5,0,85.068,0,95.625s8.568,19.125,19.125,19.125H76.5v382.5v38.25h420.75v57.375c0,10.557,8.568,19.125,19.125,19.125 s19.125-8.568,19.125-19.125V535.5h57.375c10.557,0,19.125-8.568,19.125-19.125S603.432,497.25,592.875,497.25z"/>
    </symbol>
</svg>
<svg xmlns="http://www.w3.org/2000/svg" style="display: none;">
    <symbol id="{{getCssClass}}_icon_zoom" viewBox="0 0 512 512">
        
        <g> 
            <g> 
                <path d="M310,190c-5.52,0-10,4.48-10,10s4.48,10,10,10c5.52,0,10-4.48,10-10S315.52,190,310,190z"/> 
            </g> 
        </g>
        <g> 
            <g> 
                <path d="M500.281,443.719l-133.48-133.48C388.546,277.485,400,239.555,400,200C400,89.72,310.28,0,200,0S0,89.72,0,200 s89.72,200,200,200c39.556,0,77.486-11.455,110.239-33.198l36.895,36.895c0.005,0.005,0.01,0.01,0.016,0.016l96.568,96.568 C451.276,507.838,461.319,512,472,512c10.681,0,20.724-4.162,28.278-11.716C507.837,492.731,512,482.687,512,472 S507.837,451.269,500.281,443.719z M305.536,345.727c0,0.001-0.001,0.001-0.002,0.002C274.667,368.149,238.175,380,200,380 c-99.252,0-180-80.748-180-180S100.748,20,200,20s180,80.748,180,180c0,38.175-11.851,74.667-34.272,105.535 C334.511,320.988,320.989,334.511,305.536,345.727z M326.516,354.793c10.35-8.467,19.811-17.928,28.277-28.277l28.371,28.371 c-8.628,10.183-18.094,19.65-28.277,28.277L326.516,354.793z M486.139,486.139c-3.78,3.78-8.801,5.861-14.139,5.861 s-10.359-2.081-14.139-5.861l-88.795-88.795c10.127-8.691,19.587-18.15,28.277-28.277l88.798,88.798 C489.919,461.639,492,466.658,492,472C492,477.342,489.919,482.361,486.139,486.139z"/> 
            </g> 
        </g>
        <g> 
            <g> 
                <path d="M200,40c-88.225,0-160,71.775-160,160s71.775,160,160,160s160-71.775,160-160S288.225,40,200,40z M200,340 c-77.196,0-140-62.804-140-140S122.804,60,200,60s140,62.804,140,140S277.196,340,200,340z"/> 
            </g> 
        </g>
        <g> 
            <g> 
                <path d="M312.065,157.073c-8.611-22.412-23.604-41.574-43.36-55.413C248.479,87.49,224.721,80,200,80c-5.522,0-10,4.478-10,10 c0,5.522,4.478,10,10,10c41.099,0,78.631,25.818,93.396,64.247c1.528,3.976,5.317,6.416,9.337,6.416 c1.192,0,2.405-0.215,3.584-0.668C311.472,168.014,314.046,162.229,312.065,157.073z"/> 
            </g> 
        </g>
    </symbol>
    <symbol id="{{getCssClass}}_icon_shadow" viewBox="0 0 512 512">        
        <path d="m256 122.417969c-73.65625 0-133.582031 59.925781-133.582031 133.582031s59.925781 133.582031 133.582031 133.582031 133.582031-59.925781 133.582031-133.582031-59.925781-133.582031-133.582031-133.582031zm0 237.164062c-57.117188 0-103.582031-46.464843-103.582031-103.582031s46.464843-103.582031 103.582031-103.582031 103.582031 46.464843 103.582031 103.582031-46.464843 103.582031-103.582031 103.582031zm0 0"/>
        <path d="m256 99.375c8.285156 0 15-6.71875 15-15v-69.375c0-8.285156-6.714844-15-15-15s-15 6.714844-15 15v69.375c0 8.28125 6.714844 15 15 15zm0 0"/>
        <path d="m124.035156 145.25c2.929688 2.929688 6.769532 4.394531 10.605469 4.394531 3.839844 0 7.679687-1.464843 10.605469-4.394531 5.859375-5.859375 5.859375-15.355469 0-21.214844l-49.050782-49.054687c-5.859374-5.859375-15.355468-5.859375-21.214843 0s-5.859375 15.355469 0 21.214843zm0 0"/>
        <path d="m99.375 256c0-8.285156-6.71875-15-15-15h-69.375c-8.285156 0-15 6.714844-15 15s6.714844 15 15 15h69.375c8.28125 0 15-6.714844 15-15zm0 0"/>
        <path d="m124.035156 366.75-49.054687 49.054688c-5.859375 5.859374-5.859375 15.355468 0 21.214843 2.929687 2.929688 6.769531 4.394531 10.605469 4.394531 3.839843 0 7.679687-1.464843 10.605468-4.394531l49.054688-49.054687c5.859375-5.859375 5.859375-15.355469 0-21.214844-5.855469-5.855469-15.351563-5.855469-21.210938 0zm0 0"/>
        <path d="m256 412.625c-8.285156 0-15 6.71875-15 15v69.375c0 8.285156 6.714844 15 15 15s15-6.714844 15-15v-69.375c0-8.28125-6.714844-15-15-15zm0 0"/>
        <path d="m387.964844 366.75c-5.859375-5.855469-15.355469-5.855469-21.214844 0-5.855469 5.859375-5.855469 15.355469 0 21.214844l49.054688 49.054687c2.929687 2.929688 6.769531 4.394531 10.605468 4.394531 3.839844 0 7.679688-1.464843 10.609375-4.394531 5.855469-5.859375 5.855469-15.355469 0-21.214843zm0 0"/>
        <path d="m497 241h-69.375c-8.28125 0-15 6.714844-15 15s6.71875 15 15 15h69.375c8.285156 0 15-6.714844 15-15s-6.714844-15-15-15zm0 0"/>
        <path d="m377.359375 149.640625c3.835937 0 7.675781-1.460937 10.605469-4.394531l49.054687-49.054688c5.859375-5.855468 5.859375-15.351562 0-21.210937s-15.355469-5.859375-21.214843 0l-49.054688 49.054687c-5.855469 5.859375-5.855469 15.355469 0 21.210938 2.929688 2.933594 6.769531 4.394531 10.609375 4.394531zm0 0"/>
    </symbol>
</svg>