<?xml version="1.0" standalone="no"?>
<!DOCTYPE svg PUBLIC "-//W3C//DTD SVG 20010904//EN"
 "http://www.w3.org/TR/2001/REC-SVG-20010904/DTD/svg10.dtd">
<svg version="1.0" xmlns="http://www.w3.org/2000/svg"
 width="350.000000pt" height="350.000000pt" viewBox="0 0 350.000000 350.000000"
 preserveAspectRatio="xMidYMid meet">
<metadata>
Created by potrace 1.11, written by Peter Selinger 2001-2013
</metadata>
<g transform="translate(0.000000,350.000000) scale(0.100000,-0.100000)"
fill="#000000" stroke="none">
<path d="M160 2627 c-35 -16 -87 -73 -92 -100 -2 -12 -4 -584 -4 -1272 l1
-1250 92 -3 93 -3 2 638 3 637 200 1 c182 0 204 2 240 21 44 23 95 87 98 122
1 12 5 22 10 22 4 0 5 5 1 11 -4 6 -6 57 -6 114 l0 102 -109 0 c-70 0 -112 -4
-117 -11 -3 -6 -7 -37 -7 -69 -1 -70 -9 -76 -90 -78 -33 0 -77 -1 -98 -2 -20
-1 -37 2 -37 6 0 5 -4 6 -9 3 -27 -17 -31 31 -32 438 0 309 3 421 12 432 9 10
37 14 118 14 58 0 112 -4 120 -9 11 -7 15 -34 15 -103 l1 -93 117 -3 117 -3
-3 36 c-1 19 1 40 5 47 4 7 5 16 2 21 -9 15 -9 137 0 137 5 0 5 5 2 10 -4 6
-8 24 -10 41 -5 39 -45 109 -62 109 -8 0 -12 4 -9 8 3 5 -16 16 -42 25 -38 13
-88 16 -272 16 -148 -1 -234 -5 -250 -12z"/>
<path d="M947 2633 c-2 -4 -3 -312 -3 -683 l1 -675 112 -1 c107 -1 112 0 122
23 8 16 7 23 0 23 -8 0 -7 5 1 15 7 8 9 15 4 15 -5 0 -9 36 -9 80 0 44 4 80 8
80 4 0 4 8 -2 17 -5 10 -5 26 0 40 5 13 5 23 1 23 -4 0 -7 27 -7 60 0 33 4 60
8 60 4 0 4 8 -2 17 -5 10 -5 26 0 40 5 13 5 23 1 23 -13 0 -4 82 10 91 7 5 14
4 16 -1 2 -5 14 -5 29 1 19 7 28 6 33 -2 6 -8 13 -8 31 1 16 9 24 10 27 2 2
-8 11 -8 29 -1 19 7 28 6 33 -2 6 -8 13 -8 30 1 17 9 24 9 30 0 4 -6 7 -141 7
-299 0 -158 2 -292 6 -298 7 -11 205 -12 222 -1 7 4 9 236 8 670 -1 364 -2
669 -2 676 -1 9 -31 12 -116 12 -103 0 -115 -2 -116 -17 0 -10 -1 -127 -1
-260 0 -217 -1 -241 -16 -245 -9 -2 -71 -4 -137 -4 l-119 1 -7 35 c-4 19 -4
37 1 40 5 3 5 12 0 19 -4 8 -4 25 1 38 5 15 5 23 -2 23 -6 0 -6 7 1 20 6 11 7
20 3 20 -4 0 -8 36 -8 80 0 44 4 80 8 80 4 0 4 8 -2 17 -5 10 -5 26 0 40 5 13
5 23 1 23 -5 0 -8 19 -8 43 l1 42 -112 3 c-61 1 -113 -1 -116 -5z"/>
<path d="M1919 2628 c0 -7 -2 -23 -3 -35 -2 -13 1 -23 6 -23 5 0 6 -5 2 -12
-11 -17 -11 -108 -1 -108 5 0 5 -5 1 -12 -11 -17 -11 -108 -1 -108 5 0 5 -5 1
-12 -12 -18 -10 -189 1 -196 6 -4 56 -7 113 -8 85 0 104 2 110 15 6 13 8 290
3 479 l-1 32 -115 0 c-85 0 -115 -3 -116 -12z"/>
<path d="M2350 1969 c0 -368 -2 -674 -5 -680 -8 -12 -16 -11 248 -13 218 -2
232 0 228 27 0 4 2 7 7 7 4 0 6 44 4 98 l-3 99 -117 2 c-64 1 -119 6 -122 10
-3 5 -5 259 -4 565 l0 556 -118 0 -118 0 0 -671z"/>
<path d="M2953 1958 l2 -683 230 -1 c127 0 236 2 242 4 7 2 10 9 6 15 -9 14
-10 77 0 77 4 0 7 5 7 11 0 5 -3 8 -7 6 -5 -3 -6 24 -5 59 l4 64 -121 -2 -121
-3 -1 25 c-1 14 -2 268 -3 565 l-1 540 -117 3 -116 3 1 -683z"/>
<path d="M1927 1878 c-8 -4 -11 -35 -9 -95 1 -48 2 -94 2 -100 0 -19 0 -101 0
-115 0 -7 -1 -46 -3 -85 -1 -40 2 -73 6 -73 5 0 5 -5 1 -12 -11 -17 -11 -108
-1 -108 5 0 6 -4 3 -8 -4 -6 201 -9 224 -3 4 1 5 495 1 586 -1 19 -8 20 -107
20 -58 0 -111 -3 -117 -7z"/>
</g>
</svg>
