<svg xmlns="http://www.w3.org/2000/svg" style="display: none;">
    <symbol id="widgetTreeViewButtonImage{{getCssClass}}plus" viewBox="0 0 42 42">        
        <polygon points="42,20 22,20 22,0 20,0 20,20 0,20 0,22 20,22 20,42 22,42 22,22 42,22 "/>
    </symbol>
    <symbol id="{{getCssClass}}_icon_cross" viewBox="0 0 414.298 414.299">        
        <path d="M3.663,410.637c2.441,2.44,5.64,3.661,8.839,3.661c3.199,0,6.398-1.221,8.839-3.661l185.809-185.81l185.81,185.811 c2.44,2.44,5.641,3.661,8.84,3.661c3.198,0,6.397-1.221,8.839-3.661c4.881-4.881,4.881-12.796,0-17.679l-185.811-185.81 l185.811-185.81c4.881-4.882,4.881-12.796,0-17.678c-4.882-4.882-12.796-4.882-17.679,0l-185.81,185.81L21.34,3.663 c-4.882-4.882-12.796-4.882-17.678,0c-4.882,4.881-4.882,12.796,0,17.678l185.81,185.809L3.663,392.959 C-1.219,397.841-1.219,405.756,3.663,410.637z"/>
    </symbol>
</svg>
<svg xmlns="http://www.w3.org/2000/svg" style="display: none;">
    <symbol id="{{getCssClass}}_icon_minus_r" viewBox="0 0 44.238 44.238">        
        <path d="M22.119,44.237C9.922,44.237,0,34.315,0,22.12C0,9.924,9.922,0.001,22.119,0.001S44.238,9.923,44.238,22.12 S34.316,44.237,22.119,44.237z M22.119,1.501C10.75,1.501,1.5,10.751,1.5,22.12s9.25,20.619,20.619,20.619 s20.619-9.25,20.619-20.619S33.488,1.501,22.119,1.501z"/>
        <g> 
            <path d="M31.434,22.869H12.805c-0.414,0-0.75-0.336-0.75-0.75s0.336-0.75,0.75-0.75h18.628c0.414,0,0.75,0.336,0.75,0.75 S31.848,22.869,31.434,22.869z"/> 
        </g>
    </symbol>
    <symbol id="{{getCssClass}}_icon_plus_r" viewBox="0 0 44.238 44.238">        
        <path d="M22.119,44.237C9.922,44.237,0,34.315,0,22.12C0,9.924,9.922,0.001,22.119,0.001S44.238,9.923,44.238,22.12 S34.314,44.237,22.119,44.237z M22.119,1.501C10.75,1.501,1.5,10.751,1.5,22.12s9.25,20.619,20.619,20.619 s20.619-9.25,20.619-20.619S33.488,1.501,22.119,1.501z"/>
        <g> 
            <path d="M31.434,22.869H12.805c-0.414,0-0.75-0.336-0.75-0.75s0.336-0.75,0.75-0.75h18.628c0.414,0,0.75,0.336,0.75,0.75 S31.848,22.869,31.434,22.869z"/> 
        </g>
        <g> 
            <path d="M22.119,32.183c-0.414,0-0.75-0.336-0.75-0.75V12.806c0-0.414,0.336-0.75,0.75-0.75s0.75,0.336,0.75,0.75v18.626 C22.869,31.847,22.533,32.183,22.119,32.183z"/> 
        </g>
    </symbol>
</svg>
