<svg xmlns="http://www.w3.org/2000/svg" style="display: none;">    
    <symbol id="{{getCssClass}}_icon_remove" viewBox="0 0 414.298 414.299">        
        <path d="M3.663,410.637c2.441,2.44,5.64,3.661,8.839,3.661c3.199,0,6.398-1.221,8.839-3.661l185.809-185.81l185.81,185.811 c2.44,2.44,5.641,3.661,8.84,3.661c3.198,0,6.397-1.221,8.839-3.661c4.881-4.881,4.881-12.796,0-17.679l-185.811-185.81 l185.811-185.81c4.881-4.882,4.881-12.796,0-17.678c-4.882-4.882-12.796-4.882-17.679,0l-185.81,185.81L21.34,3.663 c-4.882-4.882-12.796-4.882-17.678,0c-4.882,4.881-4.882,12.796,0,17.678l185.81,185.809L3.663,392.959 C-1.219,397.841-1.219,405.756,3.663,410.637z"/>
    </symbol>
</svg>
<svg xmlns="http://www.w3.org/2000/svg" style="display: none;">
    <symbol id="{{getCssClass}}_arrow" viewBox="0 0 512.171 512.171">        
        <path d="M479.046,283.925c-1.664-3.989-5.547-6.592-9.856-6.592H352.305V10.667C352.305,4.779,347.526,0,341.638,0H170.971 c-5.888,0-10.667,4.779-10.667,10.667v266.667H42.971c-4.309,0-8.192,2.603-9.856,6.571c-1.643,3.989-0.747,8.576,2.304,11.627 l212.8,213.504c2.005,2.005,4.715,3.136,7.552,3.136s5.547-1.131,7.552-3.115l213.419-213.504 C479.793,292.501,480.71,287.915,479.046,283.925z"/>
    </symbol>
</svg>