<svg xmlns="http://www.w3.org/2000/svg" style="display: none;">
    <symbol id="{{getCssClass}}_icon_select_infopage" viewBox="0 0 65 65">        
        <path d="M32.5,0C14.58,0,0,14.579,0,32.5S14.58,65,32.5,65S65,50.421,65,32.5S50.42,0,32.5,0z M32.5,61C16.785,61,4,48.215,4,32.5 S16.785,4,32.5,4S61,16.785,61,32.5S48.215,61,32.5,61z"/>
        <circle cx="33.018" cy="19.541" r="3.345"/>
        <path d="M32.137,28.342c-1.104,0-2,0.896-2,2v17c0,1.104,0.896,2,2,2s2-0.896,2-2v-17C34.137,29.237,33.241,28.342,32.137,28.342z "/>
    </symbol>
    <symbol id="{{getCssClass}}_icon_select_group" viewBox="0 0 60 60">        
        <path d="M26.525,10.5l-4.618-6.451L21.515,3.5H0v53h60v-46H26.525z M58,12.5v5H31.536l-3.579-5H58z M2,54.5v-49h18.485l5,7h0.012 l4.69,6.551c0.195,0.272,0.501,0.417,0.813,0.418V19.5h27v35H2z"/>
    </symbol>
    <symbol id="{{getCssClass}}_icon_select_product" viewBox="0 0 512 512">        
        <path d="M409.353,503.258c-0.044-0.476-4.483-48.265-18.333-110.055c-22.787-101.665-53.492-164.317-75.697-199.399V162.85 l25.448-110.275c0.259-1.12,0.265-2.269,0.044-3.373l0.005-0.001L332.27,6.445C331.521,2.697,328.231,0,324.409,0h-25.653 c-4.427,0-8.017,3.589-8.017,8.017v40.967c-11.791,5.055-24.121,13.702-34.395,28.314c-0.077,0.11-0.335,0.111-0.345,0.111 c-0.011,0-0.268-0.001-0.345-0.111c-10.273-14.612-22.602-23.258-34.393-28.313V8.017c0-4.427-3.589-8.017-8.017-8.017h-25.652 c-3.821,0-7.111,2.697-7.861,6.444L171.179,49.2l0.005,0.001c-0.221,1.104-0.215,2.253,0.044,3.373l25.448,110.276l0.001,30.953 c-22.206,35.082-52.91,97.734-75.698,199.399c-13.85,61.791-18.289,109.58-18.333,110.055c-0.204,2.244,0.545,4.468,2.064,6.132 c1.519,1.663,3.667,2.61,5.92,2.61H401.37c2.252,0,4.401-0.947,5.92-2.61C408.808,507.726,409.557,505.501,409.353,503.258z M306.772,16.033h11.065l5.234,26.176c-4.512,0.067-10.11,0.507-16.3,1.774V16.033z M194.163,16.033h11.064v27.951 c-6.189-1.268-11.788-1.708-16.299-1.774L194.163,16.033z M188.995,58.264c12.694,0.284,36.699,4.301,53.542,28.256 c3.047,4.334,8.08,6.922,13.462,6.922c5.382,0,10.413-2.588,13.461-6.922c16.958-24.119,40.877-28.073,53.555-28.301 l-22.086,95.701H211.07L188.995,58.264z M299.291,169.954v18.171h-86.58v-18.171H299.291z M119.564,495.967 c4.438-37.788,25.666-189.61,89.549-291.808h11.888l-15.682,101.929c-0.673,4.376,2.328,8.47,6.704,9.143 c0.414,0.063,0.824,0.094,1.229,0.094c3.89,0,7.304-2.836,7.913-6.798l16.058-104.368h10.759v163.006 c0,4.427,3.589,8.017,8.017,8.017c4.427,0,8.017-3.589,8.017-8.017V204.159h10.759l16.056,104.368 c0.609,3.964,4.024,6.798,7.913,6.798c0.405,0,0.816-0.031,1.229-0.094c4.376-0.673,7.378-4.766,6.704-9.143l-15.681-101.929 h11.889c63.843,102.138,85.101,254.008,89.548,291.808H119.564z"/>
    </symbol>
</svg>
<svg xmlns="http://www.w3.org/2000/svg" style="display: none;">
    <symbol id="{{getCssClass}}_icon_tree" viewBox="0 0 333.013 333.013">        
        <path d="M292.466,253.813l-61.2-71.2l-10.4-12.4h42c1.2,0,2.8-0.4,3.6-1.2c2.4-2,2.8-5.6,0.8-8l-48.4-56l-7.2-8.4h27.6 c1.2,0,2.8-0.4,3.6-1.2c2.4-2,2.8-5.6,0.8-8l-36.8-42.8l-36.4-42.4c-0.4-0.4-0.4-0.4-0.8-0.8c-2.4-2-6-2-8,0.8l-36.8,42.8 l-36.4,42.4c-1.2,1.2-1.6,2.4-1.6,4c0,3.2,2.8,6,6,6h27.6l-7.2,8.4l-48,56c-1.2,1.2-1.6,2.4-1.6,4c0,3.2,2.8,6,6,6h42l-10.4,12.4 l-60.4,68.8c-1.2,1.2-1.6,2.4-1.6,4c0,3.2,2.8,6,6,6h98.8v56c0,4,1.6,7.2,4,10c2.4,2.4,6,4,10,4h17.2c4,0,7.2-1.6,10-4 c2.4-2.4,4-6,4-10v-56h98.8c1.2,0,2.8-0.4,3.6-1.2C294.066,259.813,294.466,256.212,292.466,253.813z M182.866,251.013 c-3.2,0-6,2.8-6,6v62c0,0.8-0.4,1.2-0.8,1.6c-0.4,0.4-1.2,0.8-1.6,0.8h-17.2c-0.8,0-1.2-0.4-1.6-0.8c-0.4-0.4-0.8-1.2-0.8-1.6v-62 c0-3.2-2.8-6-6-6h-91.2l52.4-60.8l18.8-22c2-2.4,2-6-0.8-8c-1.2-0.8-2.4-1.2-3.6-1.2h-42.4l40-46.4l15.6-18c2-2.4,2-6-0.8-8 c-1.2-0.8-2.4-1.2-3.6-1.2h-27.6l28.4-32.8l32-38.4l32.4,37.6l28.4,32.8h-27.6c-3.2,0-6,2.8-6,6c0,1.6,0.8,3.2,1.6,4l15.2,17.6 l40,46.4h-42c-3.2,0-6,2.8-6,6c0,1.6,0.8,3.2,1.6,4l18.4,21.6l52.4,60.8H182.866z"/>
    </symbol>
    <symbol id="{{getCssClass}}_icon_block" viewBox="0 0 522.468 522.469">        
        <path d="M325.762,70.513l-17.706-4.854c-2.279-0.76-4.524-0.521-6.707,0.715c-2.19,1.237-3.669,3.094-4.429,5.568L190.426,440.53 c-0.76,2.475-0.522,4.809,0.715,6.995c1.237,2.19,3.09,3.665,5.568,4.425l17.701,4.856c2.284,0.766,4.521,0.526,6.71-0.712 c2.19-1.243,3.666-3.094,4.425-5.564L332.042,81.936c0.759-2.474,0.523-4.808-0.716-6.999 C330.088,72.747,328.237,71.272,325.762,70.513z"/>
        <path d="M166.167,142.465c0-2.474-0.953-4.665-2.856-6.567l-14.277-14.276c-1.903-1.903-4.093-2.857-6.567-2.857 s-4.665,0.955-6.567,2.857L2.856,254.666C0.95,256.569,0,258.759,0,261.233c0,2.474,0.953,4.664,2.856,6.566l133.043,133.044 c1.902,1.906,4.089,2.854,6.567,2.854s4.665-0.951,6.567-2.854l14.277-14.268c1.903-1.902,2.856-4.093,2.856-6.57 c0-2.471-0.953-4.661-2.856-6.563L51.107,261.233l112.204-112.201C165.217,147.13,166.167,144.939,166.167,142.465z"/>
        <path d="M519.614,254.663L386.567,121.619c-1.902-1.902-4.093-2.857-6.563-2.857c-2.478,0-4.661,0.955-6.57,2.857l-14.271,14.275 c-1.902,1.903-2.851,4.09-2.851,6.567s0.948,4.665,2.851,6.567l112.206,112.204L359.163,373.442 c-1.902,1.902-2.851,4.093-2.851,6.563c0,2.478,0.948,4.668,2.851,6.57l14.271,14.268c1.909,1.906,4.093,2.854,6.57,2.854 c2.471,0,4.661-0.951,6.563-2.854L519.614,267.8c1.903-1.902,2.854-4.096,2.854-6.57 C522.468,258.755,521.517,256.565,519.614,254.663z"/>
    </symbol>
</svg>