<svg xmlns="http://www.w3.org/2000/svg" style="display: none;">    
    <symbol id="{{getCssClass}}_icon_cross" viewBox="0 0 414.298 414.299">        
        <path d="M3.663,410.637c2.441,2.44,5.64,3.661,8.839,3.661c3.199,0,6.398-1.221,8.839-3.661l185.809-185.81l185.81,185.811 c2.44,2.44,5.641,3.661,8.84,3.661c3.198,0,6.397-1.221,8.839-3.661c4.881-4.881,4.881-12.796,0-17.679l-185.811-185.81 l185.811-185.81c4.881-4.882,4.881-12.796,0-17.678c-4.882-4.882-12.796-4.882-17.679,0l-185.81,185.81L21.34,3.663 c-4.882-4.882-12.796-4.882-17.678,0c-4.882,4.881-4.882,12.796,0,17.678l185.81,185.809L3.663,392.959 C-1.219,397.841-1.219,405.756,3.663,410.637z"/>
    </symbol>
</svg>
<svg xmlns="http://www.w3.org/2000/svg" style="display: none;">
    <symbol id="{{getCssClass}}_icon_lock" viewBox="0 0 57 57">       
        <path d="M40.5,23V11.601C40.5,5.204,34.893,0,28,0S15.5,5.204,15.5,11.601V23h-9v26v8h44v-8V23H40.5z M17.5,11.601 C17.5,6.307,22.21,2,28,2s10.5,4.307,10.5,9.601V23h-21V11.601z M48.5,55h-40v-4h40V55z M8.5,49V25h7h25h8v24H8.5z"/>
        <path d="M28.5,31c-2.206,0-4,1.794-4,4v6c0,2.206,1.794,4,4,4s4-1.794,4-4v-6C32.5,32.794,30.706,31,28.5,31z M30.5,41 c0,1.103-0.897,2-2,2s-2-0.897-2-2v-6c0-1.103,0.897-2,2-2s2,0.897,2,2V41z"/>
    </symbol>
</svg>
<svg xmlns="http://www.w3.org/2000/svg" style="display: none;">
    <symbol id="{{getCssClass}}_icon_plus" viewBox="0 0 42 42">        
        <polygon points="42,20 22,20 22,0 20,0 20,20 0,20 0,22 20,22 20,42 22,42 22,22 42,22 "/>
    </symbol>    
</svg>
<svg xmlns="http://www.w3.org/2000/svg" style="display: none;">
    <symbol id="{{getCssClass}}_icon_new_dir" viewBox="0 0 443.294 443.294">        
        <path d="m277.059 332.471h27.706v-55.412h55.412v-27.706h-55.412v-55.412h-27.706v55.412h-55.412v27.706h55.412z"/>
        <path d="m415.588 83.118h-202.058l-51.353-51.353c-2.597-2.597-6.115-4.058-9.794-4.058h-124.677c-15.274-.001-27.706 12.431-27.706 27.705v332.471c0 15.273 12.432 27.706 27.706 27.706h387.882c15.273 0 27.706-12.432 27.706-27.706v-277.059c0-15.274-12.432-27.706-27.706-27.706zm0 304.764h-387.882v-332.47h118.94l51.354 51.353c2.597 2.597 6.115 4.058 9.794 4.058h207.794z"/>
    </symbol>
    <symbol id="{{getCssClass}}_icon_up" viewBox="0 0 482.238 482.238">        
        <path d="m447.793 206.808-206.674-206.808-206.674 206.741 24.287 24.354 165.164-165.164v416.306h34.446v-416.306l165.232 165.232z"/>
    </symbol>
    <symbol id="{{getCssClass}}_icon_root" viewBox="0 0 192.701 192.701">        
        <path d="M20.746,104.169l75.61-74.528l75.61,74.54c4.74,4.704,12.439,4.704,17.179,0s4.74-12.319,0-17.011l-84.2-82.997 c-4.559-4.511-12.608-4.535-17.191,0l-84.2,83.009c-4.74,4.692-4.74,12.319,0,17.011C8.307,108.873,16.006,108.873,20.746,104.169 z"/>
        <path d="M104.946,88.373c-4.559-4.511-12.608-4.535-17.191,0l-84.2,82.997c-4.74,4.704-4.74,12.319,0,17.011 c4.74,4.704,12.439,4.704,17.179,0l75.622-74.528l75.61,74.54c4.74,4.704,12.439,4.704,17.179,0s4.74-12.319,0-17.011 L104.946,88.373z"/>
    </symbol>
</svg>
<svg xmlns="http://www.w3.org/2000/svg" style="display: none;">
    <symbol id="{{getCssClass}}_icon_folder" viewBox="0 0 60 60">        
        <path d="M57.49,21.5H54v-6.268c0-1.507-1.226-2.732-2.732-2.732H26.515l-5-7H2.732C1.226,5.5,0,6.726,0,8.232v43.687l0.006,0 c-0.005,0.563,0.17,1.114,0.522,1.575C1.018,54.134,1.76,54.5,2.565,54.5h44.759c1.156,0,2.174-0.779,2.45-1.813L60,24.649v-0.177 C60,22.75,58.944,21.5,57.49,21.5z M2,8.232C2,7.828,2.329,7.5,2.732,7.5h17.753l5,7h25.782c0.404,0,0.732,0.328,0.732,0.732V21.5 H12.731c-0.144,0-0.287,0.012-0.426,0.036c-0.973,0.163-1.782,0.873-2.023,1.776L2,45.899V8.232z M47.869,52.083 c-0.066,0.245-0.291,0.417-0.545,0.417H2.565c-0.243,0-0.385-0.139-0.448-0.222c-0.063-0.082-0.16-0.256-0.123-0.408l10.191-27.953 c0.066-0.245,0.291-0.417,0.545-0.417H54h3.49c0.38,0,0.477,0.546,0.502,0.819L47.869,52.083z"/>
    </symbol>
    <symbol id="{{getCssClass}}_icon_file_info" viewBox="0 0 512 512">        
        <path d="m277.332031 128c0 11.78125-9.550781 21.332031-21.332031 21.332031s-21.332031-9.550781-21.332031-21.332031 9.550781-21.332031 21.332031-21.332031 21.332031 9.550781 21.332031 21.332031zm0 0"/>
        <path d="m256 405.332031c-8.832031 0-16-7.167969-16-16v-165.332031h-21.332031c-8.832031 0-16-7.167969-16-16s7.167969-16 16-16h37.332031c8.832031 0 16 7.167969 16 16v181.332031c0 8.832031-7.167969 16-16 16zm0 0"/>
        <path d="m256 512c-141.164062 0-256-114.835938-256-256s114.835938-256 256-256 256 114.835938 256 256-114.835938 256-256 256zm0-480c-123.519531 0-224 100.480469-224 224s100.480469 224 224 224 224-100.480469 224-224-100.480469-224-224-224zm0 0"/>
        <path d="m304 405.332031h-96c-8.832031 0-16-7.167969-16-16s7.167969-16 16-16h96c8.832031 0 16 7.167969 16 16s-7.167969 16-16 16zm0 0"/>
    </symbol>
    <symbol id="{{getCssClass}}_icon_root_folder" viewBox="0 0 512 512">        
        <path d="M511.293,441.589c-28.191-99.067-39.531-171.459-121.195-239.425c-41.297-34.368-90.564-56.478-143.289-64.439V65.815 c0-13.23-14.707-21.204-25.796-13.994L7.583,190.649c-10.109,6.575-10.114,21.409,0,27.987l213.43,138.829 c11.089,7.213,25.796-0.768,25.796-13.994v-66.265c119.564,16.139,165.705,92.207,235.389,179.376 C493.479,470.692,516.295,459.169,511.293,441.589z M440.915,351.473c-51.31-64.176-127.749-104.035-209.718-109.359 c-0.362-0.023-0.722-0.035-1.083-0.035c-9.205,0-16.694,7.468-16.694,16.694v53.925L47.301,204.643l166.12-108.055v55.873 c0,8.585,6.511,15.77,15.053,16.614c100.794,9.952,191.866,74.885,228,201.862L440.915,351.473z"/>
    </symbol>
    <symbol id="{{getCssClass}}_icon_file_remove" viewBox="0 0 512.001 512.001">        
        <path d="M284.286,256.002L506.143,34.144c7.811-7.811,7.811-20.475,0-28.285c-7.811-7.81-20.475-7.811-28.285,0L256,227.717 L34.143,5.859c-7.811-7.811-20.475-7.811-28.285,0c-7.81,7.811-7.811,20.475,0,28.285l221.857,221.857L5.858,477.859 c-7.811,7.811-7.811,20.475,0,28.285c3.905,3.905,9.024,5.857,14.143,5.857c5.119,0,10.237-1.952,14.143-5.857L256,284.287 l221.857,221.857c3.905,3.905,9.024,5.857,14.143,5.857s10.237-1.952,14.143-5.857c7.811-7.811,7.811-20.475,0-28.285 L284.286,256.002z"/>
    </symbol>
    <symbol id="{{getCssClass}}_icon_common_file" viewBox="0 0 512 512">        
        <path d="M169.376,0L64,105.376V512h384V256h-32v224H96V128h96V32h224v64h32V0H169.376z M160,96h-41.376L160,54.624V96z"/>
        <rect x="416" y="128" width="32" height="32"/>
        <rect x="416" y="192" width="32" height="32"/>
    </symbol>
</svg>
<svg xmlns="http://www.w3.org/2000/svg" style="display: none;">
    <symbol id="{{getCssClass}}_icon_upload" viewBox="0 0 512 512">        
        <g> 
            <g> 
                <path d="M472,312.642v139c0,11.028-8.972,20-20,20H60c-11.028,0-20-8.972-20-20v-139H0v139c0,33.084,26.916,60,60,60h392 c33.084,0,60-26.916,60-60v-139H472z"/> 
            </g> 
        </g>
        <g> 
            <g> 
                <polygon points="256,0.358 131.716,124.642 160,152.926 236,76.926 236,388.642 276,388.642 276,76.926 352,152.926 380.284,124.642 "/> 
            </g> 
        </g>
    </symbol>
</svg>