<svg xmlns="http://www.w3.org/2000/svg" style="display: none;">
    <symbol id="{{getCssClass}}_icon_plus" viewBox="0 0 42 42">        
        <polygon points="42,20 22,20 22,0 20,0 20,20 0,20 0,22 20,22 20,42 22,42 22,22 42,22 "/>
    </symbol>
    <symbol id="{{getCssClass}}_icon_cross" viewBox="0 0 414.298 414.299">        
        <path d="M3.663,410.637c2.441,2.44,5.64,3.661,8.839,3.661c3.199,0,6.398-1.221,8.839-3.661l185.809-185.81l185.81,185.811 c2.44,2.44,5.641,3.661,8.84,3.661c3.198,0,6.397-1.221,8.839-3.661c4.881-4.881,4.881-12.796,0-17.679l-185.811-185.81 l185.811-185.81c4.881-4.882,4.881-12.796,0-17.678c-4.882-4.882-12.796-4.882-17.679,0l-185.81,185.81L21.34,3.663 c-4.882-4.882-12.796-4.882-17.678,0c-4.882,4.881-4.882,12.796,0,17.678l185.81,185.809L3.663,392.959 C-1.219,397.841-1.219,405.756,3.663,410.637z"/>
    </symbol>
</svg>
<svg xmlns="http://www.w3.org/2000/svg" style="display: none;">    
    <symbol id="{{getCssClass}}_icon_info" viewBox="0 0 52 52">        
        <path d="M26,0C11.663,0,0,11.663,0,26s11.663,26,26,26s26-11.663,26-26S40.337,0,26,0z M26,50C12.767,50,2,39.233,2,26 S12.767,2,26,2s24,10.767,24,24S39.233,50,26,50z"/>
        <path d="M26,37c-0.553,0-1,0.447-1,1v2c0,0.553,0.447,1,1,1s1-0.447,1-1v-2C27,37.447,26.553,37,26,37z"/>
        <path d="M26.113,9.001C26.075,9.001,26.037,9,25.998,9c-2.116,0-4.106,0.815-5.615,2.304C18.847,12.819,18,14.842,18,17 c0,0.553,0.447,1,1,1s1-0.447,1-1c0-1.618,0.635-3.136,1.787-4.272c1.153-1.137,2.688-1.765,4.299-1.727 c3.161,0.044,5.869,2.752,5.913,5.913c0.029,2.084-0.999,4.002-2.751,5.132C26.588,23.762,25,26.794,25,30.158V33 c0,0.553,0.447,1,1,1s1-0.447,1-1v-2.842c0-2.642,1.276-5.105,3.332-6.432c2.335-1.506,3.706-4.063,3.667-6.84 C33.939,12.599,30.401,9.061,26.113,9.001z"/>
    </symbol>
</svg>
<svg xmlns="http://www.w3.org/2000/svg" style="display: none;">
    <symbol id="{{getCssClass}}_icon_reload" viewBox="0 0 477.867 477.867">        
        <g> 
            <g> 
                <path d="M409.6,0c-9.426,0-17.067,7.641-17.067,17.067v62.344C304.667-5.656,164.478-3.386,79.411,84.479 c-40.09,41.409-62.455,96.818-62.344,154.454c0,9.426,7.641,17.067,17.067,17.067S51.2,248.359,51.2,238.933 c0.021-103.682,84.088-187.717,187.771-187.696c52.657,0.01,102.888,22.135,138.442,60.976l-75.605,25.207 c-8.954,2.979-13.799,12.652-10.82,21.606s12.652,13.799,21.606,10.82l102.4-34.133c6.99-2.328,11.697-8.88,11.674-16.247v-102.4 C426.667,7.641,419.026,0,409.6,0z"/> 
            </g> 
        </g>
        <g> 
            <g> 
                <path d="M443.733,221.867c-9.426,0-17.067,7.641-17.067,17.067c-0.021,103.682-84.088,187.717-187.771,187.696 c-52.657-0.01-102.888-22.135-138.442-60.976l75.605-25.207c8.954-2.979,13.799-12.652,10.82-21.606 c-2.979-8.954-12.652-13.799-21.606-10.82l-102.4,34.133c-6.99,2.328-11.697,8.88-11.674,16.247v102.4 c0,9.426,7.641,17.067,17.067,17.067s17.067-7.641,17.067-17.067v-62.345c87.866,85.067,228.056,82.798,313.122-5.068 c40.09-41.409,62.455-96.818,62.344-154.454C460.8,229.508,453.159,221.867,443.733,221.867z"/> 
            </g> 
        </g>
    </symbol>
</svg>
<svg xmlns="http://www.w3.org/2000/svg" style="display: none;">
    <symbol id="{{getCssClass}}_icon_banner" viewBox="0 0 512 512">        
        <g> 
            <g> 
                <path d="M504.5,78.5H464V36c0-4.142-3.357-7.5-7.5-7.5H7.5C3.358,28.5,0,31.858,0,36v322.667c0,4.142,3.358,7.5,7.5,7.5 s7.5-3.358,7.5-7.5V93.5h434v73.083c0,4.142,3.357,7.5,7.5,7.5s7.5-3.358,7.5-7.5V143.5h33v325h-49.5c-4.143,0-7.5,3.358-7.5,7.5 c0,4.142,3.357,7.5,7.5,7.5h57c4.143,0,7.5-3.358,7.5-7.5V86C512,81.858,508.643,78.5,504.5,78.5z M112,78.5H15v-35h97V78.5z M449,78.5H127v-35h322V78.5z M497,128.5h-33v-35h33V128.5z"/> 
            </g> 
        </g>
        <g> 
            <g> 
                <path d="M456.5,191.5c-4.143,0-7.5,3.358-7.5,7.5v219.5H15V391c0-4.142-3.358-7.5-7.5-7.5S0,386.858,0,391v35 c0,4.142,3.358,7.5,7.5,7.5H48V476c0,4.142,3.358,7.5,7.5,7.5h360.542c4.143,0,7.5-3.358,7.5-7.5c0-4.142-3.357-7.5-7.5-7.5H63 v-35h393.5c4.143,0,7.5-3.358,7.5-7.5V199C464,194.858,460.643,191.5,456.5,191.5z"/> 
            </g> 
        </g>
        <g> 
            <g> 
                <path d="M307,325.167H147c-15.164,0-27.5,12.336-27.5,27.5v20c0,15.164,12.336,27.5,27.5,27.5h160c15.163,0,27.5-12.336,27.5-27.5 v-20C334.5,337.503,322.163,325.167,307,325.167z M319.5,372.667c0,6.893-5.607,12.5-12.5,12.5H147c-6.893,0-12.5-5.607-12.5-12.5 v-20c0-6.893,5.607-12.5,12.5-12.5h160c6.893,0,12.5,5.607,12.5,12.5V372.667z"/> 
            </g> 
        </g>
        <g> 
            <g> 
                <circle cx="36.5" cy="61" r="7.5"/> 
            </g> 
        </g>
        <g> 
            <g> 
                <circle cx="92.5" cy="61" r="7.5"/> 
            </g> 
        </g>
        <g> 
            <g> 
                <circle cx="64.5" cy="61" r="7.5"/> 
            </g> 
        </g>
        <g> 
            <g> 
                <path d="M179.387,278.543l-47.143-131.999c-1.064-2.979-3.883-4.971-7.047-4.978c-0.005,0-0.01,0-0.016,0 c-3.157,0-5.978,1.978-7.052,4.948c-0.118,0.326-11.919,32.936-23.571,65.345c-23.999,66.752-24.003,67.306-24.019,69.142 c-0.037,4.142,3.292,7.529,7.434,7.565c0.022,0,0.044,0,0.067,0c3.603,0,6.622-2.546,7.338-5.948 c0.804-2.715,6.424-18.597,13.993-39.754h51.346l14.544,40.724c1.095,3.067,3.983,4.979,7.063,4.979 c0.837,0,1.689-0.141,2.522-0.439C178.747,286.735,180.78,282.443,179.387,278.543z M104.746,227.865 c6.457-17.994,13.704-38.104,20.392-56.621l20.222,56.621H104.746z"/> 
            </g> 
        </g>
        <g> 
            <g> 
                <path d="M198.039,141.567h-2.572c-4.142,0-7.5,3.358-7.5,7.5v132c0,4.142,3.358,7.5,7.5,7.5h2.572c40.528,0,73.5-32.972,73.5-73.5 C271.539,174.539,238.567,141.567,198.039,141.567z M202.967,273.36V156.772c29.959,2.511,53.571,27.697,53.571,58.294 C256.538,245.663,232.926,270.85,202.967,273.36z"/> 
            </g> 
        </g>
        <g> 
            <g> 
                <path d="M336.854,204.995h-15.816c-12.17,0-22.071-9.901-22.071-22.071v-4.286c0-12.17,9.901-22.071,22.071-22.071h9.429 c12.17,0,22.071,9.901,22.071,22.071c0,4.142,3.357,7.5,7.5,7.5s7.5-3.358,7.5-7.5c0-20.441-16.63-37.071-37.071-37.071h-9.429 c-20.441,0-37.071,16.63-37.071,37.071v4.286c0,20.441,16.63,37.071,37.071,37.071h15.816c8.648,0,15.684,7.036,15.684,15.684 v15.816c0,12.17-9.901,22.072-22.071,22.072h-9.429c-12.17,0-22.071-9.901-22.071-22.072v-4.714c0-4.142-3.358-7.5-7.5-7.5 c-4.143,0-7.5,3.358-7.5,7.5v4.714c0,20.441,16.63,37.072,37.071,37.072h9.429c20.441,0,37.071-16.63,37.071-37.072v-15.816 C367.538,218.76,353.773,204.995,336.854,204.995z"/> 
            </g> 
        </g>
    </symbol>
</svg>