<svg xmlns="http://www.w3.org/2000/svg" style="display: none;">
    <symbol id="{{getCssClass}}_icon_plus" viewBox="0 0 42 42">        
        <polygon points="42,20 22,20 22,0 20,0 20,20 0,20 0,22 20,22 20,42 22,42 22,22 42,22 "/>
    </symbol>
    <symbol id="{{getCssClass}}_icon_cross" viewBox="0 0 414.298 414.299">        
        <path d="M3.663,410.637c2.441,2.44,5.64,3.661,8.839,3.661c3.199,0,6.398-1.221,8.839-3.661l185.809-185.81l185.81,185.811 c2.44,2.44,5.641,3.661,8.84,3.661c3.198,0,6.397-1.221,8.839-3.661c4.881-4.881,4.881-12.796,0-17.679l-185.811-185.81 l185.811-185.81c4.881-4.882,4.881-12.796,0-17.678c-4.882-4.882-12.796-4.882-17.679,0l-185.81,185.81L21.34,3.663 c-4.882-4.882-12.796-4.882-17.678,0c-4.882,4.881-4.882,12.796,0,17.678l185.81,185.809L3.663,392.959 C-1.219,397.841-1.219,405.756,3.663,410.637z"/>
    </symbol>
</svg>
<svg xmlns="http://www.w3.org/2000/svg" style="display: none;">    
    <symbol id="{{getCssClass}}_icon_info" viewBox="0 0 52 52">        
        <path d="M26,0C11.663,0,0,11.663,0,26s11.663,26,26,26s26-11.663,26-26S40.337,0,26,0z M26,50C12.767,50,2,39.233,2,26 S12.767,2,26,2s24,10.767,24,24S39.233,50,26,50z"/>
        <path d="M26,37c-0.553,0-1,0.447-1,1v2c0,0.553,0.447,1,1,1s1-0.447,1-1v-2C27,37.447,26.553,37,26,37z"/>
        <path d="M26.113,9.001C26.075,9.001,26.037,9,25.998,9c-2.116,0-4.106,0.815-5.615,2.304C18.847,12.819,18,14.842,18,17 c0,0.553,0.447,1,1,1s1-0.447,1-1c0-1.618,0.635-3.136,1.787-4.272c1.153-1.137,2.688-1.765,4.299-1.727 c3.161,0.044,5.869,2.752,5.913,5.913c0.029,2.084-0.999,4.002-2.751,5.132C26.588,23.762,25,26.794,25,30.158V33 c0,0.553,0.447,1,1,1s1-0.447,1-1v-2.842c0-2.642,1.276-5.105,3.332-6.432c2.335-1.506,3.706-4.063,3.667-6.84 C33.939,12.599,30.401,9.061,26.113,9.001z"/>
    </symbol>
</svg>
<svg xmlns="http://www.w3.org/2000/svg" style="display: none;">
    <symbol id="{{getCssClass}}_icon_crop" viewBox="0 0 512.002 512">        
        <path d="m408.488281 111.007812c1.921875 0 3.839844-.734374 5.304688-2.199218l.179687-.175782c2.925782-2.929687 2.925782-7.679687 0-10.605468-2.933594-2.929688-7.679687-2.929688-10.609375 0l-.175781.175781c-2.929688 2.929687-2.929688 7.679687 0 10.605469 1.464844 1.464844 3.382812 2.199218 5.300781 2.199218zm0 0"/>
        <path d="m430.730469 88.765625c1.917969 0 3.839843-.734375 5.304687-2.199219l.3125-.3125c2.929688-2.929687 2.929688-7.679687 0-10.609375-2.929687-2.925781-7.675781-2.925781-10.605468 0l-.316407.316407c-2.929687 2.929687-2.929687 7.679687 0 10.605468 1.464844 1.464844 3.386719 2.199219 5.304688 2.199219zm0 0"/>
        <path d="m453.109375 66.382812c1.921875 0 3.847656-.734374 5.3125-2.203124l.3125-.316407c2.925781-2.933593 2.917969-7.679687-.015625-10.605469-2.933594-2.925781-7.683594-2.917968-10.605469.015626l-.316406.316406c-2.925781 2.933594-2.914063 7.683594.019531 10.605468 1.460938 1.460938 3.375 2.1875 5.292969 2.1875zm0 0"/>
        <path d="m475.488281 44.003906c1.917969 0 3.835938-.730468 5.300781-2.195312l.179688-.179688c2.929688-2.929687 2.929688-7.675781 0-10.605468-2.929688-2.929688-7.679688-2.929688-10.609375 0l-.175781.175781c-2.929688 2.929687-2.929688 7.679687 0 10.609375 1.464844 1.464844 3.382812 2.195312 5.304687 2.195312zm0 0"/>
        <path d="m193.898438 307.503906-.175782.175782c-2.929687 2.929687-2.929687 7.679687 0 10.605468 1.464844 1.464844 3.386719 2.199219 5.304688 2.199219 1.917968 0 3.839844-.734375 5.304687-2.199219l.175781-.175781c2.929688-2.929687 2.929688-7.679687 0-10.605469-2.929687-2.929687-7.675781-2.929687-10.609374 0zm0 0"/>
        <path d="m216.695312 284.703125-.320312.324219c-2.929688 2.925781-2.929688 7.675781 0 10.605468 1.464844 1.460938 3.386719 2.195313 5.304688 2.195313 1.917968 0 3.839843-.730469 5.304687-2.195313l.320313-.320312c2.929687-2.929688 2.929687-7.679688 0-10.609375-2.929688-2.925781-7.679688-2.925781-10.609376 0zm0 0"/>
        <path d="m239.492188 261.90625-.320313.320312c-2.929687 2.929688-2.929687 7.679688 0 10.609376 1.464844 1.460937 3.382813 2.195312 5.304687 2.195312 1.917969 0 3.839844-.730469 5.304688-2.195312l.320312-.324219c2.929688-2.925781 2.929688-7.675781 0-10.605469-2.929687-2.929688-7.679687-2.929688-10.609374 0zm0 0"/>
        <path d="m285.085938 216.3125-.320313.320312c-2.929687 2.929688-2.929687 7.675782 0 10.605469 1.464844 1.464844 3.382813 2.195313 5.304687 2.195313 1.917969 0 3.835938-.730469 5.300782-2.195313l.324218-.320312c2.925782-2.929688 2.925782-7.679688 0-10.605469-2.933593-2.929688-7.679687-2.929688-10.609374 0zm0 0"/>
        <path d="m262.285156 239.113281-.320312.320313c-2.925782 2.933594-2.921875 7.679687.007812 10.605468 1.464844 1.464844 3.382813 2.195313 5.300782 2.195313 1.921874 0 3.84375-.734375 5.308593-2.203125l.320313-.320312c2.925781-2.929688 2.921875-7.679688-.011719-10.605469-2.929687-2.925781-7.679687-2.921875-10.605469.007812zm0 0"/>
        <path d="m307.738281 193.660156-.179687.175782c-2.929688 2.929687-2.929688 7.675781 0 10.605468 1.464844 1.464844 3.386718 2.195313 5.304687 2.195313s3.839844-.730469 5.304688-2.195313l.175781-.175781c2.929688-2.929687 2.929688-7.679687 0-10.605469-2.929688-2.929687-7.675781-2.929687-10.605469 0zm0 0"/>
        <path d="m10.976562 174.574219h102.050782v213.425781c0 6.078125 4.972656 10.976562 10.972656 10.976562h213.371094v101.992188c0 6.050781 4.925781 10.972656 10.976562 10.972656h39.652344c6.054688 0 10.976562-4.921875 10.976562-10.972656v-101.992188h102.050782c6.050781 0 10.976562-4.921874 10.976562-10.976562v-39.652344c0-6.054687-4.925781-10.976562-10.976562-10.976562h-102.050782v-63.898438c0-4.140625-3.359374-7.5-7.5-7.5-4.144531 0-7.5 3.359375-7.5 7.5v223.46875h-31.605468v-326.394531c0-.136719-.003906-.277344-.007813-.414063l31.613281-31.523437v99.863281c0 4.140625 3.355469 7.5 7.5 7.5 4.140626 0 7.5-3.359375 7.5-7.5v-114.53125c0-6.082031-4.992187-10.972656-10.976562-10.972656h-128.453125c-4.144531 0-7.5 3.355469-7.5 7.5 0 4.140625 3.355469 7.5 7.5 7.5h113.855469l-31.707032 31.617188c-.101562 0-.199218-.011719-.300781-.011719h-326.394531v-31.605469h209.542969c4.144531 0 7.5-3.359375 7.5-7.5 0-4.144531-3.355469-7.5-7.5-7.5h-49.914063v-101.992188c0-6.050781-4.921875-10.976562-10.972656-10.976562h-39.65625c-6.050781 0-10.976562 4.925781-10.976562 10.976562v101.992188h-102.046876c-6.050781 0-10.976562 4.921875-10.976562 10.972656v39.65625c0 6.050782 4.925781 10.976563 10.976562 10.976563zm388 177.796875h98.023438v31.605468h-98.023438zm-224.347656-177.796875h162.742188v162.796875h-162.742188zm-4.324218 177.78125c.101562.003906.199218.015625.300781.015625h166.765625v31.605468h-198.773438zm-42.28125-177.78125h31.605468v166.820312c0 .140625.003906.277344.007813.417969l-31.613281 31.523438zm0-159.574219h31.605468v97.96875h-31.605468zm0 0"/>
    </symbol>
    <symbol id="{{getCssClass}}_icon_edit_context" viewBox="0 0 469.331 469.331">        
        <path d="M438.931,30.403c-40.4-40.5-106.1-40.5-146.5,0l-268.6,268.5c-2.1,2.1-3.4,4.8-3.8,7.7l-19.9,147.4 c-0.6,4.2,0.9,8.4,3.8,11.3c2.5,2.5,6,4,9.5,4c0.6,0,1.2,0,1.8-0.1l88.8-12c7.4-1,12.6-7.8,11.6-15.2c-1-7.4-7.8-12.6-15.2-11.6 l-71.2,9.6l13.9-102.8l108.2,108.2c2.5,2.5,6,4,9.5,4s7-1.4,9.5-4l268.6-268.5c19.6-19.6,30.4-45.6,30.4-73.3 S458.531,49.903,438.931,30.403z M297.631,63.403l45.1,45.1l-245.1,245.1l-45.1-45.1L297.631,63.403z M160.931,416.803l-44.1-44.1 l245.1-245.1l44.1,44.1L160.931,416.803z M424.831,152.403l-107.9-107.9c13.7-11.3,30.8-17.5,48.8-17.5c20.5,0,39.7,8,54.2,22.4 s22.4,33.7,22.4,54.2C442.331,121.703,436.131,138.703,424.831,152.403z"/>
    </symbol>
    <symbol id="{{getCssClass}}_icon_edit" viewBox="0 0 199.843 199.843">        
        <path d="M46.945,199.843c-5.273,0-10.951-2.061-17.087-7.262c-10.908-9.246-17.739-24.802-19.235-43.803 C8.321,119.541,18.818,86.508,37.436,64.1c-0.559-0.73-1.112-1.523-1.654-2.387c-3.798-6.053-3.454-11.479-3.178-15.839 c0.188-2.967,0.35-5.528-0.777-7.682c-2.802-5.353-5.584-6.68-5.611-6.692c-0.958-0.441-1.427-1.557-1.049-2.541 c0.376-0.984,1.435-1.514,2.442-1.202c0.927,0.287,22.092,6.94,30.153,17.199c28.745-21.543,63.353-28.147,89.313-17.075 c0.347-0.757,0.738-1.535,1.179-2.335c3.424-6.203,7.994-8.678,11.666-10.665c2.519-1.363,4.693-2.541,6.036-4.618 c3.315-5.132,3.293-8.175,3.293-8.204c-0.021-1.057,0.782-1.966,1.835-2.052c1.059-0.089,1.991,0.644,2.143,1.689 c0.137,0.95,3.292,23.402-2.661,35.028c-1.009,1.971-2.045,3.65-3.069,5.082c5.063,5.254,9.514,11.8,13.246,19.485l0,0 c12.776,26.313,11.607,55.782-3.379,85.223c-11.256,22.113-26.061,36.208-26.686,36.798c-0.425,0.423-11.413,11.117-24.932,7.835 c-8.006-1.944-11.09-7.596-13.81-12.581c-3.085-5.654-5.75-10.537-14.924-10.996c-6.706-0.307-13.55,6.678-20.81,14.104 C68.006,190.056,58.438,199.843,46.945,199.843z M40.119,67.133c-17.74,21.632-27.716,53.286-25.508,81.331 c1.412,17.931,7.746,32.515,17.834,41.066c16.666,14.126,28.435,2.091,40.896-10.652c7.908-8.088,15.376-15.735,23.869-15.302 c11.413,0.57,15.038,7.213,18.236,13.074c2.659,4.874,4.956,9.084,11.243,10.61c11.32,2.747,21.113-6.729,21.21-6.826 c0.181-0.172,15.021-14.316,25.953-35.841c14.55-28.647,15.657-56.086,3.291-81.554l0,0c-3.464-7.135-7.56-13.216-12.191-18.105 c-2.605,2.774-4.907,4.043-6.146,4.578l-20.668,44.419c-0.229,0.493-0.649,0.871-1.164,1.048c-0.122,0.042-0.248,0.071-0.374,0.089 c-2.008,4.197-7.989,16.577-15.406,30.811c2.189,2.421,3.575,5.318,4.029,8.446c0.697,4.808-0.851,9.625-4.358,13.566 c-3.42,3.844-8.318,6.397-13.79,7.191c-5.473,0.793-10.894-0.264-15.265-2.978c-4.482-2.782-7.335-6.962-8.032-11.769 c-0.551-3.798,0.34-7.713,2.512-11.129c-6.218-9.194-11.061-16.855-12.971-19.911c-0.141,0.006-0.303-0.013-0.453-0.046 c-0.535-0.116-0.999-0.447-1.283-0.915L64.89,97.328c-0.23,0.2-0.467,0.391-0.71,0.573c-5.681,4.258-13.765,3.099-18.022-2.581 c-4.257-5.68-3.099-13.765,2.581-18.022c0.909-0.681,1.909-1.238,2.964-1.657l-1.997-3.284 C47.896,72.036,44.073,70.931,40.119,67.133z M94.524,149.065c2.244,1.264,4.805,2.015,7.497,2.219 c-1.782-2.348-3.555-4.744-5.292-7.141c-0.453,0.996-0.9,1.988-1.34,2.977C95.102,147.762,94.814,148.411,94.524,149.065z M76.855,107.406c3.664,5.854,16.726,26.42,30.036,43.659c3.647-0.599,6.952-2.126,9.524-4.381 c-11.182-19.122-26.068-39.846-30.249-45.586L76.855,107.406z M88.808,132.902c-1.039,2.196-1.408,4.53-1.07,6.861 c0.373,2.572,1.589,4.92,3.505,6.835c0.165-0.371,0.329-0.741,0.493-1.108c0.751-1.686,1.522-3.385,2.306-5.091 C92.238,137.861,90.484,135.343,88.808,132.902z M115.275,137.04c1.337,2.162,2.65,4.331,3.922,6.485 c1.768-2.661,2.498-5.661,2.067-8.626c-0.269-1.852-0.982-3.603-2.092-5.162C117.904,132.146,116.6,134.59,115.275,137.04z M106.585,123.492c2.06,3.11,4.167,6.352,6.25,9.646c9.383-17.481,17.488-34.218,20.041-39.548l-8.449-4.326 C121.867,93.949,114.398,107.758,106.585,123.492z M89.276,98.576c2.28,3.128,8.083,11.176,14.749,21.083 c7.593-15.188,14.67-28.251,17.016-32.543c-0.064-0.118-0.117-0.244-0.157-0.376c-0.157-0.521-0.096-1.082,0.17-1.557l11.456-20.431 c-0.03,0-0.061,0-0.091,0c-3.971,0-7.84-1.836-10.317-5.142c-4.257-5.681-3.1-13.766,2.581-18.022 c2.751-2.062,6.142-2.925,9.545-2.442c3.404,0.487,6.415,2.271,8.477,5.023c0.265,0.354,0.51,0.717,0.735,1.092l1.56-2.782 c-0.464-1.741-1.06-5.582,0.574-10.89c-24.72-10.585-57.923-4.119-85.599,16.707C63.868,54.979,63.976,60,63.71,62.352 c-0.012,0.112-0.025,0.218-0.038,0.317l25.415,33.809c0.329,0.438,0.464,0.991,0.374,1.531 C89.427,98.208,89.365,98.399,89.276,98.576z M53.588,71.043l20.321,33.42l10.717-7.261L61.125,65.938L53.588,71.043z M53.769,79.144c-0.945,0.297-1.826,0.751-2.632,1.354c-3.915,2.935-4.713,8.507-1.778,12.423c2.933,3.914,8.505,4.714,12.423,1.778 c0.333-0.25,0.649-0.524,0.946-0.822L53.769,79.144z M125.559,85.329l9.829,5.033l19.328-41.538l-6.75-3.457l-3.033,5.409 c-0.027,0.062-0.057,0.122-0.09,0.182l-6.747,12.033c-0.034,0.059-0.07,0.116-0.108,0.172L125.559,85.329z M34.335,34.507 c0.345,0.563,0.691,1.173,1.035,1.83c1.646,3.145,1.442,6.372,1.225,9.79c-0.265,4.179-0.539,8.5,2.574,13.459 c4.36,6.946,9.309,8.455,11.083,8.78l9.479-6.423c0.014-0.119,0.027-0.254,0.038-0.403c0.129-1.98-0.165-6.491-4.148-12.627 c-0.065-0.1-0.12-0.204-0.166-0.311c-0.072-0.108-0.145-0.218-0.219-0.327C51.205,42.325,41.39,37.426,34.335,34.507z M132.384,43.014c-1.905,0-3.751,0.612-5.303,1.775c-3.916,2.935-4.714,8.507-1.779,12.423c2.239,2.986,6.128,4.234,9.661,3.165 l6.018-10.732c-0.289-1.12-0.784-2.152-1.477-3.076c-1.422-1.897-3.497-3.127-5.843-3.463 C133.234,43.044,132.808,43.014,132.384,43.014z M148.922,41.255l8.637,4.423c0.823-0.408,2.259-1.271,3.938-2.933 c1.673-1.666,3.619-4.156,5.507-7.843c3.168-6.187,3.4-16.326,3.05-23.663c-0.23,0.388-0.476,0.785-0.74,1.193 c-1.898,2.938-4.615,4.408-7.491,5.966c-3.545,1.919-7.21,3.903-10.068,9.081C147.782,34.68,148.485,39.588,148.922,41.255z M44.663,181.472c-3.919,0-7.792-1.778-10.317-5.148c-4.257-5.681-3.1-13.765,2.581-18.022h0c2.752-2.062,6.143-2.926,9.545-2.442 c3.404,0.487,6.415,2.271,8.477,5.023c2.062,2.752,2.929,6.142,2.442,9.546c-0.487,3.403-2.271,6.414-5.023,8.477 C50.058,180.636,47.349,181.471,44.663,181.472z M44.629,159.727c-1.905,0-3.751,0.612-5.303,1.775h0 c-1.896,1.421-3.126,3.496-3.462,5.843c-0.336,2.347,0.262,4.684,1.684,6.58c2.935,3.914,8.507,4.713,12.423,1.778 c1.896-1.421,3.126-3.496,3.462-5.843s-0.262-4.683-1.684-6.58c-1.421-1.896-3.496-3.126-5.843-3.462 C45.479,159.757,45.052,159.727,44.629,159.727z M157.868,139.639c-0.615,0-1.232-0.044-1.852-0.132 c-3.404-0.487-6.415-2.271-8.477-5.023c-2.062-2.752-2.93-6.142-2.442-9.546c0.487-3.403,2.271-6.414,5.023-8.477 c5.681-4.257,13.766-3.098,18.022,2.581c4.257,5.681,3.099,13.766-2.582,18.022C163.31,138.751,160.631,139.639,157.868,139.639z M157.83,117.893c-1.852,0-3.718,0.575-5.312,1.77c-3.915,2.935-4.713,8.507-1.778,12.423c1.421,1.896,3.496,3.126,5.843,3.462 c2.341,0.338,4.682-0.262,6.579-1.684c3.916-2.935,4.714-8.507,1.779-12.423C163.201,119.119,160.531,117.893,157.83,117.893z M40.494,139.639c-0.615,0-1.232-0.044-1.852-0.132c-3.404-0.487-6.415-2.271-8.477-5.023l0,0c-2.063-2.751-2.93-6.142-2.442-9.546 c0.487-3.403,2.271-6.414,5.023-8.477c2.751-2.063,6.142-2.926,9.545-2.442c3.404,0.487,6.415,2.271,8.477,5.023 c2.063,2.751,2.93,6.142,2.442,9.546c-0.488,3.403-2.271,6.414-5.023,8.477C45.936,138.751,43.257,139.639,40.494,139.639z M40.448,117.887c-1.905,0-3.751,0.612-5.303,1.775c-1.897,1.421-3.126,3.496-3.462,5.843c-0.336,2.347,0.262,4.683,1.684,6.58l0,0 c1.421,1.896,3.496,3.126,5.843,3.462c2.342,0.338,4.683-0.262,6.579-1.684c1.897-1.421,3.126-3.496,3.463-5.843 c0.336-2.347-0.262-4.683-1.684-6.58c-1.422-1.896-3.497-3.126-5.843-3.462C41.298,117.917,40.871,117.887,40.448,117.887z M160.725,98.097c-0.615,0-1.233-0.044-1.853-0.133c-3.404-0.487-6.414-2.271-8.477-5.023c-2.062-2.751-2.93-6.141-2.442-9.545 c0.487-3.403,2.271-6.414,5.023-8.477c5.679-4.258,13.764-3.1,18.022,2.581c4.257,5.681,3.099,13.766-2.582,18.022 C166.167,97.209,163.488,98.097,160.725,98.097z M160.687,76.351c-1.852,0-3.719,0.576-5.312,1.77 c-1.896,1.421-3.126,3.496-3.462,5.843c-0.336,2.346,0.262,4.683,1.683,6.579h0c1.421,1.896,3.497,3.126,5.843,3.463 c2.348,0.332,4.683-0.262,6.579-1.684c3.916-2.935,4.714-8.507,1.779-12.423C166.057,77.577,163.388,76.351,160.687,76.351z M89.092,69.722c-3.919,0-7.792-1.778-10.317-5.148h0c-4.257-5.68-3.099-13.765,2.581-18.022c5.682-4.257,13.766-3.099,18.023,2.581 c4.257,5.681,3.1,13.766-2.581,18.022C94.487,68.886,91.778,69.722,89.092,69.722z M81.975,62.175 c2.935,3.915,8.508,4.714,12.423,1.778c1.896-1.421,3.126-3.496,3.462-5.843s-0.262-4.683-1.684-6.58 c-2.935-3.914-8.506-4.715-12.423-1.778C79.838,52.687,79.041,58.259,81.975,62.175L81.975,62.175z"/>
    </symbol>
</svg>