<?xml version="1.0" encoding="utf-8"?>
<!-- Generator: Adobe Illustrator 18.0.0, SVG Export Plug-In . SVG Version: 6.00 Build 0)  -->
<!DOCTYPE svg PUBLIC "-//W3C//DTD SVG 1.1//EN" "http://www.w3.org/Graphics/SVG/1.1/DTD/svg11.dtd">
<svg version="1.1" id="Capa_1" xmlns="http://www.w3.org/2000/svg" xmlns:xlink="http://www.w3.org/1999/xlink" x="0px" y="0px"
	 viewBox="0 0 512 512" enable-background="new 0 0 512 512" xml:space="preserve">
<g>
	<linearGradient id="SVGID_1_" gradientUnits="userSpaceOnUse" x1="76.9777" y1="174.6602" x2="146.9095" y2="174.6602">
		<stop  offset="0" style="stop-color:#E02EFD"/>
		<stop  offset="0.356" style="stop-color:#307EDE"/>
		<stop  offset="0.7524" style="stop-color:#1AACFF"/>
		<stop  offset="1" style="stop-color:#FFFFFF"/>
	</linearGradient>
	<path fill="url(#SVGID_1_)" d="M114.6,116.5c-27.4,27.4-40.9,65.6-37,104.8c1,9.8,9.2,17,18.8,17c0.6,0,1.3,0,1.9-0.1
		c10.4-1,18-10.3,16.9-20.7c-2.8-27.8,6.7-54.9,26.1-74.3c7.4-7.4,7.4-19.4,0-26.7C134,109.1,122,109.1,114.6,116.5z"/>
	<linearGradient id="SVGID_2_" gradientUnits="userSpaceOnUse" x1="0" y1="256" x2="511.9998" y2="256">
		<stop  offset="0" style="stop-color:#E02EFD"/>
		<stop  offset="0.356" style="stop-color:#307EDE"/>
		<stop  offset="0.7524" style="stop-color:#1AACFF"/>
		<stop  offset="1" style="stop-color:#FFFFFF"/>
	</linearGradient>
	<path fill="url(#SVGID_2_)" d="M506.5,479.7L381.9,355.2c31.6-37.6,50.6-86.1,50.6-138.9C432.6,97,335.5,0,216.3,0
		C97,0,0,97,0,216.3s97,216.3,216.3,216.3c52.8,0,101.3-19.1,138.9-50.6l124.5,124.5c3.7,3.7,8.5,5.5,13.4,5.5
		c4.8,0,9.7-1.8,13.4-5.5C513.8,499.1,513.8,487.1,506.5,479.7z M37.8,216.3c0-98.4,80-178.4,178.4-178.4
		c98.4,0,178.4,80,178.4,178.4c0,48.3-19.3,92.2-50.6,124.4c-0.6,0.5-1.3,1-1.9,1.6c-0.6,0.6-1.1,1.2-1.6,1.9
		c-32.2,31.3-76,50.6-124.4,50.6C117.9,394.7,37.8,314.7,37.8,216.3z"/>
</g>
</svg>
