<?xml version="1.0" encoding="utf-8"?>
<!-- Generator: Adobe Illustrator 18.0.0, SVG Export Plug-In . SVG Version: 6.00 Build 0)  -->
<!DOCTYPE svg PUBLIC "-//W3C//DTD SVG 1.1//EN" "http://www.w3.org/Graphics/SVG/1.1/DTD/svg11.dtd">
<svg version="1.1" id="Capa_1" xmlns="http://www.w3.org/2000/svg" xmlns:xlink="http://www.w3.org/1999/xlink" x="0px" y="0px"
	 viewBox="0 0 512 512" enable-background="new 0 0 512 512" xml:space="preserve">
<g>
	<g>
		<path fill="#FFFFFF" d="M211.5,494.6c-1.9-1.9-4.4-2.9-7.1-2.9c-2.6,0-5.2,1.1-7.1,2.9s-2.9,4.4-2.9,7.1s1.1,5.2,2.9,7.1
			c1.9,1.9,4.4,2.9,7.1,2.9s5.2-1.1,7.1-2.9c1.9-1.9,2.9-4.4,2.9-7.1S213.4,496.5,211.5,494.6z"/>
	</g>
</g>
<g>
	<g>
		<path fill="#FFFFFF" d="M58,313.2c-5.5,0-10,4.5-10,10V416c0,5.5,4.5,10,10,10s10-4.5,10-10v-92.8C68,317.6,63.5,313.2,58,313.2z"
			/>
	</g>
</g>
<g>
	<g>
		<path fill="#FFFFFF" d="M65.1,274.4c-1.9-1.9-4.4-2.9-7.1-2.9s-5.2,1.1-7.1,2.9c-1.9,1.9-2.9,4.4-2.9,7.1c0,2.6,1.1,5.2,2.9,7.1
			c1.9,1.9,4.4,2.9,7.1,2.9s5.2-1.1,7.1-2.9s2.9-4.4,2.9-7.1S66.9,276.3,65.1,274.4z"/>
	</g>
</g>
<g>
	<g>
		<linearGradient id="SVGID_1_" gradientUnits="userSpaceOnUse" x1="256" y1="0.308" x2="256" y2="511.691">
			<stop  offset="0" style="stop-color:#E02EFD"/>
			<stop  offset="0.356" style="stop-color:#307EDE"/>
			<stop  offset="0.7524" style="stop-color:#1AACFF"/>
			<stop  offset="1" style="stop-color:#FFFFFF"/>
		</linearGradient>
		<path fill="url(#SVGID_1_)" d="M512,270.7c0-23.9-17.3-43.9-40-48.2v-64.8c0-27.6-22.4-50-50-50h-52.3L265.3,3.2
			c-3.9-3.9-10.2-3.9-14.1,0l-23.2,23.2L204.7,3.2c-3.9-3.9-10.2-3.9-14.1,0L85.4,108.3c-1.1-0.4-2.2-0.6-3.4-0.6H50
			c-27.6,0-50,22.4-50,50c0,0.7,0,1.5,0.1,2.2c0,0.3-0.1,0.7-0.1,1v300.8c0,27.6,22.4,50,50,50h112.3c5.5,0,10-4.5,10-10
			s-4.5-10-10-10H50c-16.5,0-30-13.5-30-30v-264c8.4,6.3,18.8,10,30,10l209.3,0.2h113.6c0.3,0,0.7,0,1,0c0,0,0,0,0.1,0
			c15.2,1.5,27,14.3,27,29.9v62H280c-27.6,0-50,22.4-50,50s22.4,50,50,50h121v62c0,16.5-13.5,30-30,30H246.3c-5.5,0-10,4.5-10,10
			s4.5,10,10,10H371c27.6,0,50-22.4,50-50v-4h1c27.6,0,50-22.4,50-50v-9c22.8-4.6,40-24.8,40-49v-77c0-0.2,0-0.4,0-0.6
			C512,271.6,512,271.1,512,270.7z M238.8,43.9l19.4-19.4l21.4,21.4c-12.8,7.7-28.8,7.9-41.8,0.6C238.3,45.7,238.6,44.8,238.8,43.9z
			 M20,157.7c0-16.5,13.5-30,30-30h16.1L23,170.8C21.1,166.8,20,162.4,20,157.7z M50,187.7c-4.6,0-8.9-1-12.8-2.9L197.6,24.5
			l16.2,16.2L66.7,187.7H50z M144.4,187.7c1.4-1.7,2.8-3.3,4.3-4.8c11.8-11.8,27.5-18.3,44.2-18.3s32.4,6.5,44.2,18.3
			c1.5,1.5,3,3.2,4.3,4.8H144.4z M353.7,187.7h-88.3c-3.8-7-8.5-13.3-14.2-19c-15.6-15.6-36.3-24.2-58.4-24.2s-42.8,8.6-58.4,24.2
			c-5.6,5.6-10.4,12-14.2,19H95L222.4,60.3c10.7,7.7,23.3,11.5,35.9,11.5s25.2-3.8,35.9-11.5l65.3,65.3
			C346.2,143.9,344.4,167.8,353.7,187.7z M373.8,182.9c-7.9-13.1-7.9-29.7,0-42.9l21.4,21.4L373.8,182.9z M392.4,192.5l24-24
			c3.9-3.9,3.9-10.2,0-14.1l-26.7-26.7H422c16.5,0,30,13.5,30,30v142h-31v-62C421,217.8,409.3,200.6,392.4,192.5z M452,407.7
			c0,16.5-13.5,30-30,30h-1v-38h31V407.7z M492,349.7c0,16.5-13.5,30-30,30H280c-16.5,0-30-13.5-30-30s13.5-30,30-30h183
			c10.8,0,20.9-3.5,29-9.5V349.7z M472,298.3v-55.1c11.6,3.8,20,14.7,20,27.6S483.6,294.5,472,298.3z"/>
	</g>
</g>
<g>
	<g>
		<path fill="#FFFFFF" d="M289.1,342.6c-1.9-1.9-4.4-2.9-7.1-2.9s-5.2,1.1-7.1,2.9c-1.9,1.9-2.9,4.4-2.9,7.1s1.1,5.2,2.9,7.1
			c1.9,1.9,4.4,2.9,7.1,2.9s5.2-1.1,7.1-2.9c1.9-1.9,2.9-4.4,2.9-7.1S290.9,344.5,289.1,342.6z"/>
	</g>
</g>
<g>
	<g>
		<path fill="#FFFFFF" d="M293.6,126.1c-3.9-3.9-10.2-3.9-14.1,0l-17.4,17.4c-3.9,3.9-3.9,10.2,0,14.1c2,2,4.5,2.9,7.1,2.9
			c2.6,0,5.1-1,7.1-2.9l17.4-17.4C297.5,136.3,297.5,130,293.6,126.1z"/>
	</g>
</g>
</svg>
