<?xml version="1.0"?>
<svg xmlns="http://www.w3.org/2000/svg" height="512px" viewBox="-25 0 512 512.003" width="512px"><path d="m454.472656 415.503906c-.011718-.023437-.023437-.046875-.035156-.070312-.023438-.046875-.046875-.09375-.070312-.140625l-32.753907-62.605469c-18.636719-35.667969-35.160156-61.097656-78.285156-63.417969-17.609375-.957031-28.882813-4.160156-41.617187-19.011719-1.34375-1.574218-3.558594-3.894531-5.742188-6.140624 16.195312-15.753907 28.5625-35.449219 34.003906-54.984376h9.289063c15.582031 0 28.261719-12.792968 28.261719-28.515624v-13.84375c0-8.78125-3.957032-16.644532-10.164063-21.878907v-27.40625c0-36.257812-14.042969-66.777343-40.601563-88.25-23.324218-18.855469-54.609374-29.238281-88.097656-29.238281-33.972656 0-65.714844 10.664062-89.386718 30.03125-27.03125 22.117188-41.320313 53.628906-41.320313 91.128906v23.761719c-.601563.507813-1.191406 1.039063-1.753906 1.601563-5.425781 5.414062-8.414063 12.613281-8.414063 20.28125v13.84375c0 15.722656 12.679688 28.511718 28.261719 28.511718h9.292969c5.832031 20.941406 19.613281 42.042969 37.53125 58.285156-.992188 1.050782-1.878906 2.019532-2.554688 2.804688-12.769531 14.894531-24.03125 18.09375-41.621094 19.023438-36.074218 1.949218-53.324218 19.535156-69.464843 47.277343-2.101563 3.605469-.878907 8.230469 2.730469 10.332031 1.195312.695313 2.5 1.027344 3.792968 1.027344 2.601563 0 5.136719-1.347656 6.539063-3.757812 14.296875-24.570313 27.648437-38.1875 57.210937-39.785156 6.730469-.355469 12.964844-1.085938 18.882813-2.570313 16.707031 23.65625 51.054687 37.929687 91.117187 37.929687 1.667969 0 3.34375-.027343 5.03125-.078124 39.441406-1.164063 72.742188-15.519532 88.824219-37.878907 5.921875 1.488281 12.226563 2.21875 19.152344 2.597657 34.128906 1.832031 46.78125 19.101562 65.707031 55.328124l23.300781 44.53125c-15.496093-3.804687-33.578125-3.167968-57.027343 1.792969l3.679687-36.828125c.496094-5.050781-1.171875-9.980468-4.699219-13.875-3.796875-4.191406-9.210937-6.59375-14.847656-6.59375h-106.722656c-4.175782 0-7.558594 3.382813-7.558594 7.554688 0 4.175781 3.386719 7.558594 7.558594 7.558594h106.722656c1.335938 0 2.734375.625 3.644531 1.628906.648438.710937.933594 1.464844.859375 2.230468l-10.960937 109.804688c-.003907.007812-.003907.019531-.003907.027344l-1.402343 14.035156c-.253907 2.566406-1.769531 5.324219-4.5 5.324219h-230.5c-2.609375 0-4.242188-2.679688-4.503907-5.332031l-1.398437-14.015626c-.003906-.019531-.003906-.035156-.003906-.050781l-6.195313-62.035156c-.011718-.332031-.042968-.660156-.097656-.980469l-4.667969-46.769531c-.078125-.773437.210938-1.527344.855469-2.238281.914062-1.007813 2.308594-1.628906 3.644531-1.628906h110.382813c4.171875 0 7.554687-3.386719 7.554687-7.558594 0-4.175782-3.382812-7.558594-7.554687-7.558594h-110.382813c-5.636719 0-11.046875 2.40625-14.84375 6.597656-3.527343 3.894532-5.199219 8.820313-4.699219 13.878906l3.675782 36.816407c-23.449219-4.953125-41.53125-5.589844-57.023438-1.785157l17.84375-34.097656c1.933594-3.695312.507813-8.265625-3.191406-10.199218-3.699219-1.9375-8.265625-.503907-10.199219 3.191406l-27.304687 52.175781c-.023438.046875-.042969.09375-.070313.140625-.011719.023438-.023437.046875-.035156.070312-8.972656 17.265626-9.953125 31.933594-2.886719 43.597657 10.890625 17.992187 39.96875 26.738281 88.882813 26.738281h1.957031l.71875 7.207031c1.085938 10.980469 9.304688 18.953125 19.542969 18.953125h230.496093c10.242188 0 18.460938-7.972656 19.542969-18.949218l.722657-7.210938h1.984374c48.894532 0 77.960938-8.746094 88.855469-26.738281 7.0625-11.664063 6.085938-26.335938-2.890625-43.601563zm-136.5625-277.214844h-48.417968c-36.070313 0-50.5-8.796874-63.21875-16.546874-2.523438-1.546876-4.742188-3.023438-6.886719-4.453126-6.304688-4.195312-11.832031-7.875-18.210938-7.875-.695312 0-1.402343.046876-2.121093.136719-8.179688 1.046875-14.359376 7.824219-21.121094 17.683594-6.484375 9.457031-10.136719 11.054687-15.871094 11.054687h-4.664062v-15.074218c0-53.183594 48-82.015625 93.167968-82.140625h.292969c39.996094 0 86.679687 23.15625 87.050781 88.441406zm34.5 42.328126c0 7.390624-5.898437 13.402343-13.148437 13.402343h-6.511719c.167969-1.964843.277344-3.921875.277344-5.855469v-34.777343l6.234375-.011719c2.265625 0 4.402343.585938 6.265625 1.621094.179687.125.371094.242187.566406.351562 3.78125 2.355469 6.316406 6.589844 6.316406 11.425782zm-239.34375-59.457032c0-72.859375 59.921875-106.046875 115.59375-106.046875 30.039063 0 57.953125 9.191407 78.59375 25.878907 22.890625 18.503906 34.988282 44.957031 34.988282 76.496093v20.933594c-.984376-.105469-1.984376-.160156-2.996094-.160156l-6.21875.011719v-8.800782c-.40625-71.550781-51.542969-103.515625-102.164063-103.515625-.109375 0-.230469 0-.339843 0-27.117188.078125-54.003907 9.269531-73.773438 25.222657-22.226562 17.933593-34.46875 43.519531-34.46875 72.035156v15.074218h-6.214844c-.023437 0-.050781 0-.074218 0-.984376 0-1.960938.054688-2.925782.15625zm2.980469 72.886719c-7.25 0-13.148437-6.011719-13.148437-13.398437v-13.84375c0-3.621094 1.410156-7.023438 3.976562-9.582032 2.46875-2.460937 5.707031-3.816406 9.140625-3.816406h.03125 6.238281v34.757812c0 1.945313.109375 3.910157.277344 5.886719h-6.515625zm22.675781 6.351563c-.027344-.167969-.058594-.339844-.097656-.503907-.792969-3.976562-1.226562-7.90625-1.226562-11.730469v-34.761718h4.667968c13.488282 0 21.082032-7.042969 28.335938-17.621094 6.707031-9.78125 9.625-11.117188 10.566406-11.238281 1.71875-.230469 5.945312 2.601562 10.042969 5.328125 2.152343 1.4375 4.597656 3.0625 7.378906 4.765625 13.71875 8.359375 30.789063 18.765625 71.101563 18.765625h48.417968v34.761718c0 3.792969-.429687 7.691407-1.207031 11.636719-.054687.222657-.097656.445313-.128906.675781-6.394531 30.710938-35 64.285157-67.074219 76.402344-16.113281 6.058594-27.515625 6.066406-43.574219.03125-32.171875-12.089844-60.84375-45.726562-67.203125-76.511718zm95.363282 124.140624c-35.328126 1.046876-65.695313-9.753906-81.085938-28.503906 6.40625-3.601562 12.578125-8.703125 18.785156-15.941406.671875-.78125 1.714844-1.898438 2.875-3.113281 8.160156 5.855469 16.902344 10.679687 25.945313 14.078125 9.726562 3.65625 18.382812 5.484375 27.050781 5.484375 8.6875 0 17.386719-1.839844 27.171875-5.519531 10.460937-3.949219 20.511719-9.796876 29.730469-16.957032 2.105468 2.164063 4.496094 4.648438 5.671875 6.023438 6.171875 7.195312 12.214843 12.265625 18.496093 15.855468-14.152343 16.65625-42.277343 27.640626-74.640624 28.59375zm-140.542969 146.1875c-53.042969 0-70.582031-10.578124-75.957031-19.453124-3.9375-6.503907-3.101563-15.578126 2.460937-26.988282 16.933594-8.972656 37.40625-9.710937 69.0625-2.449218l4.878906 48.890624zm350.890625-19.449218c-5.375 8.871094-22.90625 19.449218-75.925782 19.449218h-.476562l4.882812-48.882812c31.648438-7.269531 52.121094-6.535156 69.058594 2.441406 5.566406 11.410156 6.398438 20.488282 2.460938 26.992188zm0 0" fill="#FFFFFF"/><path d="m198.480469 430.359375c0 16.246094 14.597656 29.464844 32.542969 29.464844 17.945312 0 32.546874-13.21875 32.546874-29.464844 0-16.25-14.601562-29.46875-32.546874-29.46875-17.945313 0-32.542969 13.21875-32.542969 29.46875zm32.542969-14.351563c9.613281 0 17.433593 6.4375 17.433593 14.351563s-7.820312 14.351563-17.433593 14.351563c-9.609376 0-17.429688-6.4375-17.429688-14.351563s7.820312-14.351563 17.429688-14.351563zm0 0" fill="#FFFFFF"/><path d="m194.613281 203.785156c4.171875 0 7.554688-3.382812 7.554688-7.558594v-9.335937c0-4.171875-3.382813-7.554687-7.554688-7.554687-4.175781 0-7.558593 3.382812-7.558593 7.554687v9.335937c0 4.175782 3.382812 7.558594 7.558593 7.558594zm0 0" fill="#FFFFFF"/><path d="m259.953125 203.785156c4.175781 0 7.558594-3.382812 7.558594-7.558594v-9.335937c0-4.171875-3.382813-7.554687-7.558594-7.554687-4.171875 0-7.554687 3.382812-7.554687 7.554687v9.335937c0 4.175782 3.382812 7.558594 7.554687 7.558594zm0 0" fill="#FFFFFF"/></svg>
