<?xml version="1.0" encoding="iso-8859-1"?>
<!-- Generator: Adobe Illustrator 19.0.0, SVG Export Plug-In . SVG Version: 6.00 Build 0)  -->
<svg xmlns="http://www.w3.org/2000/svg" xmlns:xlink="http://www.w3.org/1999/xlink" version="1.1" id="Layer_1" x="0px" y="0px" viewBox="0 0 505.233 505.233" style="enable-background:new 0 0 505.233 505.233;" xml:space="preserve" width="512px" height="512px">
<g>
	<g>
		<path d="M197.997,61.019c-75.748,0-136.767,61.721-136.767,136.767c0,75.748,61.721,136.767,136.767,136.767    c75.748,0,136.767-61.721,136.767-136.767C334.764,122.038,273.745,61.019,197.997,61.019z M197.997,306.499    c-44.186,0-82.06-26.652-99.595-64.526h32.263c7.715,0,14.027-6.312,14.027-14.027c0-7.715-6.312-14.027-14.027-14.027H89.986    c-0.701-5.611-1.403-11.222-1.403-16.833s0.701-10.521,1.403-16.132h70.838c7.715,0,14.027-6.312,14.027-14.027    c0-7.715-6.312-14.027-14.027-14.027H98.403c16.833-37.874,55.408-65.227,99.594-65.227c60.318,0,108.712,49.096,108.712,108.712    C306.71,258.104,258.315,306.499,197.997,306.499z" fill="#FFFFFF"/>
	</g>
</g>
<g>
	<g>
		<path d="M487.663,401.885L374.041,288.263c14.027-27.353,21.742-57.512,21.742-90.477C395.783,89.074,307.411,0,197.997,0    S0.211,88.373,0.211,197.786c0,108.712,88.373,197.786,197.786,197.786c32.263,0,63.123-7.715,90.477-21.742l113.622,113.622    c37.874,33.666,74.345,11.222,85.567,0C510.808,463.605,510.808,425.03,487.663,401.885z M197.997,367.518    c-93.282,0-169.732-76.449-169.732-169.732S104.715,28.055,197.997,28.055s169.732,76.449,169.732,169.732    S291.279,367.518,197.997,367.518z M467.323,467.112c-6.312,6.312-25.249,17.534-45.589,0L313.022,358.4    c17.534-12.625,32.964-28.055,45.589-45.589l108.712,108.712C479.948,434.148,479.948,454.488,467.323,467.112z" fill="#FFFFFF"/>
	</g>
</g>
<g>
</g>
<g>
</g>
<g>
</g>
<g>
</g>
<g>
</g>
<g>
</g>
<g>
</g>
<g>
</g>
<g>
</g>
<g>
</g>
<g>
</g>
<g>
</g>
<g>
</g>
<g>
</g>
<g>
</g>
</svg>
