<svg xmlns="http://www.w3.org/2000/svg" style="display: none;">
    <symbol id="{{getCssClass}}_icon_plus" viewBox="0 0 42 42">        
        <polygon points="42,20 22,20 22,0 20,0 20,20 0,20 0,22 20,22 20,42 22,42 22,22 42,22 "/>
    </symbol>
    <symbol id="{{getCssClass}}_icon_cross" viewBox="0 0 414.298 414.299">        
        <path d="M3.663,410.637c2.441,2.44,5.64,3.661,8.839,3.661c3.199,0,6.398-1.221,8.839-3.661l185.809-185.81l185.81,185.811 c2.44,2.44,5.641,3.661,8.84,3.661c3.198,0,6.397-1.221,8.839-3.661c4.881-4.881,4.881-12.796,0-17.679l-185.811-185.81 l185.811-185.81c4.881-4.882,4.881-12.796,0-17.678c-4.882-4.882-12.796-4.882-17.679,0l-185.81,185.81L21.34,3.663 c-4.882-4.882-12.796-4.882-17.678,0c-4.882,4.881-4.882,12.796,0,17.678l185.81,185.809L3.663,392.959 C-1.219,397.841-1.219,405.756,3.663,410.637z"/>
    </symbol>
</svg>
<svg xmlns="http://www.w3.org/2000/svg" style="display: none;">    
    <symbol id="{{getCssClass}}_icon_info" viewBox="0 0 52 52">        
        <path d="M26,0C11.663,0,0,11.663,0,26s11.663,26,26,26s26-11.663,26-26S40.337,0,26,0z M26,50C12.767,50,2,39.233,2,26 S12.767,2,26,2s24,10.767,24,24S39.233,50,26,50z"/>
        <path d="M26,37c-0.553,0-1,0.447-1,1v2c0,0.553,0.447,1,1,1s1-0.447,1-1v-2C27,37.447,26.553,37,26,37z"/>
        <path d="M26.113,9.001C26.075,9.001,26.037,9,25.998,9c-2.116,0-4.106,0.815-5.615,2.304C18.847,12.819,18,14.842,18,17 c0,0.553,0.447,1,1,1s1-0.447,1-1c0-1.618,0.635-3.136,1.787-4.272c1.153-1.137,2.688-1.765,4.299-1.727 c3.161,0.044,5.869,2.752,5.913,5.913c0.029,2.084-0.999,4.002-2.751,5.132C26.588,23.762,25,26.794,25,30.158V33 c0,0.553,0.447,1,1,1s1-0.447,1-1v-2.842c0-2.642,1.276-5.105,3.332-6.432c2.335-1.506,3.706-4.063,3.667-6.84 C33.939,12.599,30.401,9.061,26.113,9.001z"/>
    </symbol>
</svg>
<svg xmlns="http://www.w3.org/2000/svg" style="display: none;">
    <symbol id="{{getCssClass}}_icon_flop" viewBox="0 0 49 49">        
        <path d="M39.914,0H37.5h-28h-9v49h7h33h8V8.586L39.914,0z M35.5,2v14h-24V2H35.5z M9.5,47V28h29v19H9.5z M46.5,47h-6V26h-33v21h-5 V2h7v16h28V2h1.586L46.5,9.414V47z"/>
        <path d="M13.5,33h7c0.553,0,1-0.447,1-1s-0.447-1-1-1h-7c-0.553,0-1,0.447-1,1S12.947,33,13.5,33z"/>
        <path d="M23.5,35h-10c-0.553,0-1,0.447-1,1s0.447,1,1,1h10c0.553,0,1-0.447,1-1S24.053,35,23.5,35z"/>
        <path d="M25.79,35.29c-0.181,0.189-0.29,0.45-0.29,0.71s0.109,0.52,0.29,0.71C25.979,36.89,26.229,37,26.5,37 c0.26,0,0.52-0.11,0.71-0.29c0.18-0.19,0.29-0.45,0.29-0.71s-0.11-0.521-0.29-0.71C26.84,34.92,26.16,34.92,25.79,35.29z"/>
        <path d="M33.5,4h-6v10h6V4z M31.5,12h-2V6h2V12z"/>
    </symbol>
    <symbol id="{{getCssClass}}_icon_reload" viewBox="0 -26 512.00029 512">        
        <path d="m444.632812 67.367188c-43.441406-43.441407-101.199218-67.367188-162.632812-67.367188-87.089844 0-166.742188 49.476562-205.613281 126.851562h-55.234375c-8.582032 0-16.246094 5.121094-19.53125 13.050782-3.285156 7.929687-1.484375 16.972656 4.582031 23.042968l70.566406 70.566407c3.605469 3.605469 8.402344 5.59375 13.507813 5.59375 5.101562 0 9.894531-1.984375 13.5-5.589844l70.570312-70.570313c6.066406-6.070312 7.867188-15.113281 4.582032-23.042968-3.28125-7.929688-10.949219-13.050782-19.53125-13.050782h-48.777344c35.890625-59.507812 100.824218-96.851562 171.378906-96.851562 110.28125 0 200 89.71875 200 200s-89.71875 200-200 200c-53.421875 0-103.644531-20.800781-141.421875-58.574219-5.855469-5.859375-15.355469-5.859375-21.210937 0-5.859376 5.855469-5.859376 15.355469 0 21.210938 43.4375 43.441406 101.195312 67.363281 162.632812 67.363281s119.191406-23.921875 162.636719-67.363281c43.441406-43.441407 67.363281-101.199219 67.363281-162.636719 0-61.433594-23.921875-119.191406-67.367188-162.632812zm-354.355468 137.222656-47.742188-47.738282h95.480469zm0 0"/>
    </symbol>
</svg>
