<svg xmlns="http://www.w3.org/2000/svg" style="display: none;">    
    <symbol id="{{getCssClass}}_icon_cross" viewBox="0 0 414.298 414.299">        
        <path d="M3.663,410.637c2.441,2.44,5.64,3.661,8.839,3.661c3.199,0,6.398-1.221,8.839-3.661l185.809-185.81l185.81,185.811 c2.44,2.44,5.641,3.661,8.84,3.661c3.198,0,6.397-1.221,8.839-3.661c4.881-4.881,4.881-12.796,0-17.679l-185.811-185.81 l185.811-185.81c4.881-4.882,4.881-12.796,0-17.678c-4.882-4.882-12.796-4.882-17.679,0l-185.81,185.81L21.34,3.663 c-4.882-4.882-12.796-4.882-17.678,0c-4.882,4.881-4.882,12.796,0,17.678l185.81,185.809L3.663,392.959 C-1.219,397.841-1.219,405.756,3.663,410.637z"/>
    </symbol>
</svg>
<svg xmlns="http://www.w3.org/2000/svg" style="display: none;">
    <symbol id="{{getCssClass}}_icon_html" viewBox="0 0 32 32">
        <polygon style="fill:#010002;" points="22,6 22,10 28,16 22,22 22,26 32,16 "/>
        <polygon style="fill:#010002;" points="10,10 10,6 0,16 10,26 10,22 4,16 "/>
        <polygon style="fill:#010002;" points="18,12 10,20 14,20 22,12 "/>
    </symbol>
</svg>
<svg xmlns="http://www.w3.org/2000/svg" style="display: none;">
    <symbol id="{{getCssClass}}_icon_remove" viewBox="0 0 414.298 414.299">        
        <path d="M3.663,410.637c2.441,2.44,5.64,3.661,8.839,3.661c3.199,0,6.398-1.221,8.839-3.661l185.809-185.81l185.81,185.811 c2.44,2.44,5.641,3.661,8.84,3.661c3.198,0,6.397-1.221,8.839-3.661c4.881-4.881,4.881-12.796,0-17.679l-185.811-185.81 l185.811-185.81c4.881-4.882,4.881-12.796,0-17.678c-4.882-4.882-12.796-4.882-17.679,0l-185.81,185.81L21.34,3.663 c-4.882-4.882-12.796-4.882-17.678,0c-4.882,4.881-4.882,12.796,0,17.678l185.81,185.809L3.663,392.959 C-1.219,397.841-1.219,405.756,3.663,410.637z"/>
    </symbol>
    <symbol id="{{getCssClass}}_icon_crop" viewBox="0 0 375 375">        
        <path d="M362.5,284.094h-53.406V83.584l42.91-42.91c4.881-4.882,4.881-12.796,0-17.678c-4.881-4.881-12.797-4.881-17.678,0 l-42.91,42.91H90.906V12.5c0-6.903-5.597-12.5-12.5-12.5c-6.903,0-12.5,5.597-12.5,12.5v53.406H12.5c-6.903,0-12.5,5.597-12.5,12.5 c0,6.903,5.597,12.5,12.5,12.5h53.406v205.688c0,6.903,5.597,12.5,12.5,12.5h205.688V362.5c0,6.903,5.597,12.5,12.5,12.5 s12.5-5.597,12.5-12.5v-53.406H362.5c6.902,0,12.5-5.597,12.5-12.5C375,289.691,369.402,284.094,362.5,284.094z M266.416,90.906 l-175.51,175.51V90.906H266.416z M108.584,284.094l175.51-175.51v175.51H108.584z"/>
    </symbol>    
</svg>
<svg xmlns="http://www.w3.org/2000/svg" style="display: none;">
    <symbol id="{{getCssClass}}_icon_upload" viewBox="0 0 512 512">        
        <path d="m309.571 240.365-112.477-67.475c-1.841-1.104-3.849-1.688-5.808-1.688-5.609 0-9.839 4.534-9.839 10.547v135.234c0 6.013 4.23 10.547 9.839 10.547 1.959 0 3.967-.583 5.808-1.688l112.479-67.472c3.386-2.033 5.407-5.398 5.407-9.003 0-3.602-2.021-6.968-5.409-9.002zm-113.123 68.374v-118.744l98.974 59.374z"/>
        <path d="m82.5 128.75c0-5.79-4.71-10.5-10.5-10.5h-27c-5.79 0-10.5 4.71-10.5 10.5v27c0 5.79 4.71 10.5 10.5 10.5h27c5.79 0 10.5-4.71 10.5-10.5zm-15 22.5h-18v-18h18z"/>
        <path d="m82.5 196.75c0-5.79-4.71-10.5-10.5-10.5h-27c-5.79 0-10.5 4.71-10.5 10.5v27c0 5.79 4.71 10.5 10.5 10.5h27c5.79 0 10.5-4.71 10.5-10.5zm-15 22.5h-18v-18h18z"/>
        <path d="m82.5 264.75c0-5.79-4.71-10.5-10.5-10.5h-27c-5.79 0-10.5 4.71-10.5 10.5v27c0 5.79 4.71 10.5 10.5 10.5h27c5.79 0 10.5-4.71 10.5-10.5zm-15 22.5h-18v-18h18z"/>
        <path d="m72 322.25h-27c-5.79 0-10.5 4.71-10.5 10.5v27c0 5.79 4.71 10.5 10.5 10.5h27c5.79 0 10.5-4.71 10.5-10.5v-27c0-5.79-4.71-10.5-10.5-10.5zm-4.5 33h-18v-18h18z"/>
        <path d="m413 166.25h27c5.79 0 10.5-4.71 10.5-10.5v-27c0-5.79-4.71-10.5-10.5-10.5h-27c-5.79 0-10.5 4.71-10.5 10.5v27c0 5.79 4.71 10.5 10.5 10.5zm4.5-33h18v18h-18z"/>
        <path d="m413 234.25h27c5.79 0 10.5-4.71 10.5-10.5v-27c0-5.79-4.71-10.5-10.5-10.5h-27c-5.79 0-10.5 4.71-10.5 10.5v27c0 5.79 4.71 10.5 10.5 10.5zm4.5-33h18v18h-18z"/>
        <path d="m483.783 274.139v-180.078c0-7.438-6.04-13.49-13.465-13.49h-386.318c-4.143 0-7.5 3.357-7.5 7.5s3.357 7.5 7.5 7.5h16.332v297.656h-85.332v-297.657h34c4.143 0 7.5-3.357 7.5-7.5s-3.357-7.5-7.5-7.5h-35.535c-7.425 0-13.465 6.052-13.465 13.491v300.676c0 7.439 6.04 13.49 13.465 13.49h347.14c16.081 14.422 37.282 23.203 60.491 23.203 19.302 0 37.739-5.996 53.319-17.339 3.348-2.438 4.086-7.13 1.648-10.478-2.44-3.349-7.129-4.085-10.479-1.648-12.997 9.464-28.381 14.466-44.489 14.466-41.853 0-75.902-34.21-75.902-76.26s34.05-76.26 75.902-76.26c41.853 0 75.904 34.21 75.904 76.26 0 13.396-3.503 26.567-10.132 38.092-2.064 3.591-.828 8.176 2.763 10.241 3.592 2.065 8.176.827 10.241-2.763 7.935-13.798 12.129-29.556 12.129-45.571 0-25.947-10.842-49.399-28.217-66.031zm-15-11.631c-13.873-8.616-30.21-13.598-47.688-13.598-13.42 0-26.168 2.938-37.645 8.2v-98.11c0-4.143-3.357-7.5-7.5-7.5s-7.5 3.357-7.5 7.5v106.811c-23.14 16.56-38.258 43.72-38.258 74.358 0 19.773 6.299 38.096 16.984 53.057h-231.844v-297.656h253.119v27.43c0 4.143 3.357 7.5 7.5 7.5s7.5-3.357 7.5-7.5v-27.43h85.332z"/>
        <path d="m411.596 399.67h19c6.341 0 11.5-5.159 11.5-11.5v-46.316h11.315c4.526 0 8.646-2.67 10.497-6.803 1.849-4.129 1.096-8.98-1.92-12.359l-32.315-36.178c-2.18-2.44-5.306-3.84-8.577-3.84-3.272 0-6.397 1.399-8.577 3.84l-32.319 36.18c-3.013 3.377-3.766 8.228-1.916 12.357 1.85 4.132 5.97 6.802 10.496 6.802h11.315v46.316c.001 6.342 5.16 11.501 11.501 11.501zm-14.997-72.817 24.497-27.426 24.497 27.426h-10.997c-4.143 0-7.5 3.357-7.5 7.5v50.316h-12v-50.316c0-4.143-3.357-7.5-7.5-7.5z"/>
    </symbol>
</svg>
<svg xmlns="http://www.w3.org/2000/svg" style="display: none;">
    <symbol id="{{getCssClass}}_icon_pending" viewBox="0 0 60 60">       
        <path d="M54,58h-3v-4h-5V43.778c0-2.7-1.342-5.208-3.589-6.706L31.803,30l10.608-7.072C44.658,21.43,46,18.922,46,16.222V6h5V2h3 c0.552,0,1-0.447,1-1s-0.448-1-1-1h-3h-1H10H9H6C5.448,0,5,0.447,5,1s0.448,1,1,1h3v4h5v10.222c0,2.7,1.342,5.208,3.589,6.706 L28.197,30l-10.608,7.072C15.342,38.57,14,41.078,14,43.778V54H9v4H6c-0.552,0-1,0.447-1,1s0.448,1,1,1h3h1h40h1h3 c0.552,0,1-0.447,1-1S54.552,58,54,58z M11,4V2h38v2h-3H14H11z M18.698,21.264C17.009,20.137,16,18.252,16,16.222V6h28v10.222 c0,2.03-1.009,3.915-2.698,5.042L30,28.798L18.698,21.264z M16,43.778c0-2.03,1.009-3.915,2.698-5.042L30,31.202l11.302,7.534 C42.991,39.863,44,41.748,44,43.778V54H16V43.778z M11,56h3h32h3v2H11V56z"/>
        <path d="M20.917,17.936C20.343,17.553,20,16.912,20,16.222V14c0-0.553-0.448-1-1-1s-1,0.447-1,1v2.222 c0,1.361,0.676,2.624,1.808,3.378l4.638,3.092c0.17,0.113,0.363,0.168,0.554,0.168c0.323,0,0.64-0.156,0.833-0.445 c0.306-0.46,0.182-1.08-0.277-1.387L20.917,17.936z"/>
        <path d="M40.192,41.26l-4.638-3.092c-0.46-0.307-1.08-0.183-1.387,0.277c-0.306,0.46-0.182,1.08,0.277,1.387l4.638,3.092 C39.657,43.307,40,43.947,40,44.638v2.222c0,0.553,0.448,1,1,1s1-0.447,1-1v-2.222C42,43.276,41.324,42.014,40.192,41.26z"/>
    </symbol>
</svg>
