<svg xmlns="http://www.w3.org/2000/svg" style="display: none;">
    <symbol id="{{getCssClass}}_icon_plus" viewBox="0 0 42 42">        
        <polygon points="42,20 22,20 22,0 20,0 20,20 0,20 0,22 20,22 20,42 22,42 22,22 42,22 "/>
    </symbol>
    <symbol id="widgetTreeViewButtonImage{{getCssClass}}Plus" viewBox="0 0 42 42">        
        <use xlink:href="#{{getCssClass}}_icon_plus" />
    </symbol>    
    <symbol id="{{getCssClass}}_icon_cross" viewBox="0 0 414.298 414.299">        
        <path d="M3.663,410.637c2.441,2.44,5.64,3.661,8.839,3.661c3.199,0,6.398-1.221,8.839-3.661l185.809-185.81l185.81,185.811 c2.44,2.44,5.641,3.661,8.84,3.661c3.198,0,6.397-1.221,8.839-3.661c4.881-4.881,4.881-12.796,0-17.679l-185.811-185.81 l185.811-185.81c4.881-4.882,4.881-12.796,0-17.678c-4.882-4.882-12.796-4.882-17.679,0l-185.81,185.81L21.34,3.663 c-4.882-4.882-12.796-4.882-17.678,0c-4.882,4.881-4.882,12.796,0,17.678l185.81,185.809L3.663,392.959 C-1.219,397.841-1.219,405.756,3.663,410.637z"/>
    </symbol>
</svg>
<svg xmlns="http://www.w3.org/2000/svg" style="display: none;">    
    <symbol id="{{getCssClass}}_icon_info" viewBox="0 0 52 52">        
        <path d="M26,0C11.663,0,0,11.663,0,26s11.663,26,26,26s26-11.663,26-26S40.337,0,26,0z M26,50C12.767,50,2,39.233,2,26 S12.767,2,26,2s24,10.767,24,24S39.233,50,26,50z"/>
        <path d="M26,37c-0.553,0-1,0.447-1,1v2c0,0.553,0.447,1,1,1s1-0.447,1-1v-2C27,37.447,26.553,37,26,37z"/>
        <path d="M26.113,9.001C26.075,9.001,26.037,9,25.998,9c-2.116,0-4.106,0.815-5.615,2.304C18.847,12.819,18,14.842,18,17 c0,0.553,0.447,1,1,1s1-0.447,1-1c0-1.618,0.635-3.136,1.787-4.272c1.153-1.137,2.688-1.765,4.299-1.727 c3.161,0.044,5.869,2.752,5.913,5.913c0.029,2.084-0.999,4.002-2.751,5.132C26.588,23.762,25,26.794,25,30.158V33 c0,0.553,0.447,1,1,1s1-0.447,1-1v-2.842c0-2.642,1.276-5.105,3.332-6.432c2.335-1.506,3.706-4.063,3.667-6.84 C33.939,12.599,30.401,9.061,26.113,9.001z"/>
    </symbol>
</svg>
<svg xmlns="http://www.w3.org/2000/svg" style="display: none;">  
    <symbol id="{{getCssClass}}_icon_folder" viewBox="0 0 60 60">        
        <path d="M26.515,10.5l-5-7H0v53h60v-37v-2v-7H26.515z M31.515,17.5l-3.571-5H58v5H31.515z"/>
    </symbol>
    <symbol id="widgetTreeViewIcon{{getCssClass}}FolderCollapsed" viewBox="0 0 60 60">        
        <use xlink:href="#{{getCssClass}}_icon_folder"/>
    </symbol>
    <symbol id="widgetTreeViewIcon{{getCssClass}}FolderExpanded" viewBox="0 0 60 60">        
        <use xlink:href="#{{getCssClass}}_icon_folder"/>
    </symbol>
    
</svg>
<svg xmlns="http://www.w3.org/2000/svg" style="display: none;">
    <symbol id="{{getCssClass}}_icon_select_all" viewBox="0 0 594.149 594.149">        
        <path d="M448.8,161.925l-35.7-35.7l-160.65,160.65l35.7,35.7L448.8,161.925z M555.899,126.225l-267.75,270.3l-107.1-107.1 l-35.7,35.7l142.8,142.8l306-306L555.899,126.225z M0,325.125l142.8,142.8l35.7-35.7l-142.8-142.8L0,325.125z"/>
    </symbol>
</svg>