<svg version="1.1"  xmlns="http://www.w3.org/2000/svg" xmlns:xlink="http://www.w3.org/1999/xlink" x="0px" y="0px"
     width="52px" height="19px" viewBox="0 0 52 19" enable-background="new 0 0 52 19" xml:space="preserve">
<symbol  id="catalog_view_icon_big" viewBox="-10 -10 19 19">
	<polygon  points="-2,1 -10,1 -10,9 -2,9"/>
	<polygon  points="9,1 1,1 1,9 9,9"/>
	<polygon  points="-2,-10 -10,-10 -10,-2 -2,-2"/>
	<polygon  points="9,-10 1,-10 1,-2 9,-2"/>	
</symbol>
<symbol  id="catalog_view_icon_small" viewBox="-10 -10 19 19">
	<polygon  points="-5,4 -10,4 -10,9 -5,9"/>
	<polygon  points="2,4 -3,4 -3,9 2,9"/>
	<polygon  points="9,4 4,4 4,9 9,9"/>
	<polygon  points="-5,-3 -10,-3 -10,2 -5,2"/>
	<polygon  points="2,-3 -3,-3 -3,2 2,2"/>
	<polygon  points="9,-3 4,-3 4,2 9,2"/>
	<polygon  points="-5,-10 -10,-10 -10,-5 -5,-5"/>
	<polygon  points="2,-10 -3,-10 -3,-5 2,-5"/>
	<polygon  points="9,-10 4,-10 4,-5 9,-5"/>
</symbol>
</svg>
