<svg xmlns="http://www.w3.org/2000/svg" style="display: none;">    
    <symbol id="{{getCssClass}}_icon_cross" viewBox="0 0 414.298 414.299">        
        <path d="M3.663,410.637c2.441,2.44,5.64,3.661,8.839,3.661c3.199,0,6.398-1.221,8.839-3.661l185.809-185.81l185.81,185.811 c2.44,2.44,5.641,3.661,8.84,3.661c3.198,0,6.397-1.221,8.839-3.661c4.881-4.881,4.881-12.796,0-17.679l-185.811-185.81 l185.811-185.81c4.881-4.882,4.881-12.796,0-17.678c-4.882-4.882-12.796-4.882-17.679,0l-185.81,185.81L21.34,3.663 c-4.882-4.882-12.796-4.882-17.678,0c-4.882,4.881-4.882,12.796,0,17.678l185.81,185.809L3.663,392.959 C-1.219,397.841-1.219,405.756,3.663,410.637z"/>
    </symbol>
</svg>
<svg xmlns="http://www.w3.org/2000/svg" style="display: none;">
    <symbol id="{{getCssClass}}_icon_html" viewBox="0 0 32 32">
        <polygon style="fill:#010002;" points="22,6 22,10 28,16 22,22 22,26 32,16 "/>
        <polygon style="fill:#010002;" points="10,10 10,6 0,16 10,26 10,22 4,16 "/>
        <polygon style="fill:#010002;" points="18,12 10,20 14,20 22,12 "/>
    </symbol>
</svg>
<svg xmlns="http://www.w3.org/2000/svg" style="display: none;">
    <symbol id="{{getCssClass}}_icon_info" viewBox="0 0 512 512">        
        <path d="m437.019531 74.980469c-48.351562-48.351563-112.640625-74.980469-181.019531-74.980469-61.554688 0-121.039062 22.160156-167.5 62.402344-3.175781 2.75-3.519531 7.554687-.769531 10.726562 2.75 3.175782 7.550781 3.519532 10.726562.769532 43.695313-37.847657 99.644531-58.691407 157.542969-58.691407 64.316406 0 124.785156 25.046875 170.265625 70.527344s70.527344 105.949219 70.527344 170.265625-25.046875 124.785156-70.527344 170.265625-105.949219 70.527344-170.265625 70.527344-124.785156-25.046875-170.265625-70.527344-70.527344-105.949219-70.527344-170.265625c0-59.824219 22.082031-117.175781 62.183594-161.484375 2.816406-3.113281 2.574219-7.921875-.539063-10.742187-3.113281-2.816407-7.921874-2.578126-10.738281.539062-42.632812 47.109375-66.113281 108.082031-66.113281 171.6875 0 68.378906 26.628906 132.667969 74.980469 181.019531 48.351562 48.351563 112.640625 74.980469 181.019531 74.980469s132.667969-26.628906 181.019531-74.980469c48.351563-48.351562 74.980469-112.640625 74.980469-181.019531s-26.628906-132.667969-74.980469-181.019531zm0 0"/>
        <path d="m246.332031 347.125c-23.480469 0-42.585937 19.3125-42.585937 43.046875s19.105468 43.046875 42.585937 43.046875c11.527344 0 22.382813-4.585938 30.566407-12.917969 7.929687-8.074219 12.480468-19.054687 12.480468-30.128906 0-11.378906-4.511718-22.15625-12.699218-30.347656-8.191407-8.1875-18.96875-12.699219-30.347657-12.699219zm0 70.886719c-15.097656 0-27.378906-12.488281-27.378906-27.839844s12.28125-27.839844 27.378906-27.839844c15.089844 0 27.835938 12.75 27.835938 27.839844s-12.746094 27.839844-27.835938 27.839844zm0 0"/>
        <path d="m319.605469 228.371094c3.167969 2.765625 7.96875 2.4375 10.730469-.726563 18.324218-20.992187 27.617187-42.96875 27.617187-65.316406 0-23.566406-10.585937-44.929687-29.804687-60.152344-19.320313-15.300781-45.539063-23.386719-75.828126-23.386719-37.46875 0-60.644531 12.648438-73.484374 23.257813-15.527344 12.828125-24.800782 30.03125-24.800782 46.015625 0 10.390625 4.253906 19.542969 11.980469 25.773438 6.359375 5.128906 14.828125 8.070312 23.242187 8.070312 14.496094 0 20.851563-9.371094 25.957032-16.902344 6.46875-9.535156 12.574218-18.542968 35.71875-18.542968 7.933594 0 33.820312 1.710937 33.820312 23.695312 0 16.59375-15.339844 28.371094-28.875 38.761719-3.34375 2.5625-6.5 4.988281-9.445312 7.488281-15.585938 13.433594-33.480469 34.183594-33.480469 75.726562 0 23.074219 5.597656 38.445313 32.921875 38.445313 12.101562 0 21.238281-2.742187 27.15625-8.148437 4.96875-4.539063 7.597656-10.878907 7.597656-18.335938 0-22.414062 0-33.664062 22.859375-51.542969l.390625-.304687c1.007813-.785156 2.171875-1.695313 3.453125-2.730469 3.269531-2.636719 3.78125-7.421875 1.144531-10.691406-2.636718-3.269531-7.421874-3.78125-10.691406-1.144531-1.214844.980468-2.3125 1.835937-3.261718 2.578124l-.402344.3125c-27.367188 21.40625-28.699219 37.292969-28.699219 63.527344 0 3.371094 0 11.273438-19.546875 11.273438-9.546875 0-12.453125-1.996094-13.917969-3.738282-2.554687-3.035156-3.796875-9.414062-3.796875-19.5 0-35.160156 14.257813-52.1875 28.15625-64.167968 2.621094-2.222656 5.632813-4.535156 8.824219-6.984375 15.511719-11.910157 34.824219-26.734375 34.824219-50.824219 0-23.632812-19.246094-38.902344-49.03125-38.902344-31.203125 0-41.085938 14.574219-48.304688 25.214844-4.933594 7.277344-7.183594 10.230469-13.371094 10.230469-8.042968 0-20.011718-4.964844-20.011718-18.636719 0-8.878906 5.0625-22.550781 19.277344-34.292969 10.921874-9.019531 30.851562-19.777343 63.800781-19.777343 53.242187 0 90.421875 28.101562 90.421875 68.335937 0 18.5625-8.027344 37.171875-23.863282 55.316406-2.765624 3.164063-2.4375 7.964844.722657 10.726563zm0 0"/>
    </symbol>
    <symbol id="{{getCssClass}}_icon_seek" viewBox="0 0 405.21 405.21">        
        <path d="M403.131,357.592c-0.121-0.129-0.246-0.255-0.549-0.19L281.238,236.05c45.821-70.897,25.492-165.516-45.405-211.337 C164.935-21.108,70.316-0.779,24.495,70.118C-21.326,141.016-0.997,235.635,69.9,281.455 c50.562,32.678,115.597,32.632,166.113-0.117l121.32,121.312c3.124,3.123,8.188,3.123,11.312,0l33.936-33.936 C405.808,365.695,406.15,360.818,403.131,357.592z M232.454,264.53c-53.997,38.725-128.117,32.536-174.944-14.608 C4.371,196.838,4.326,110.728,57.41,57.589s139.194-53.184,192.333-0.1c46.98,46.931,53.198,120.927,14.711,175.041 c-4.36,6.204-9.247,12.021-14.608,17.384c-2.667,2.667-5.464,5.232-8.392,7.696C238.526,260.074,235.526,262.381,232.454,264.53z M362.982,385.682L249.23,271.93c0.344-0.28,0.648-0.608,0.992-0.888c3.813-3.084,7.468-6.357,10.952-9.808 c3.464-3.464,6.696-7.152,9.792-10.936c0.288-0.344,0.616-0.648,0.896-1l113.752,113.76L362.982,385.682z"/>
    </symbol>
    <symbol id="{{getCssClass}}_icon_upload" viewBox="0 0 512 512">        
        <g> 
            <g> 
                <path d="M472,312.642v139c0,11.028-8.972,20-20,20H60c-11.028,0-20-8.972-20-20v-139H0v139c0,33.084,26.916,60,60,60h392 c33.084,0,60-26.916,60-60v-139H472z"/> 
            </g> 
        </g>
        <g> 
            <g> 
                <polygon points="256,0.358 131.716,124.642 160,152.926 236,76.926 236,388.642 276,388.642 276,76.926 352,152.926 380.284,124.642 "/> 
            </g> 
        </g>
    </symbol>
</svg>