<svg xmlns="http://www.w3.org/2000/svg" style="display: none;">
    <symbol id="chill_player_button_play" viewBox="0 0 335 335">
        <polygon points="22.5,0 22.5,335 312.5,167.5 "/>
    </symbol>
    <symbol id="chill_player_button_pause" viewBox="0 0 365 365">
        <rect x="74.5" width="73" height="365"/>
        <rect x="217.5" width="73" height="365"/>
    </symbol>
    <symbol id="chill_player_button_volume_2" viewBox="0 0 401.963 401.963">        
        <path d="M327.106,86.816c-15.829-12.918-35.53-18.431-54.583-23.762c-35.134-9.831-60.52-16.934-60.52-63.055h-30v273.579 c-14.274-10.374-32.573-16.616-52.5-16.616c-45.491,0-82.5,32.523-82.5,72.5s37.009,72.5,82.5,72.5s82.5-32.523,82.5-72.5V69.874 c15.443,11.721,34.235,16.979,52.436,22.072c35.134,9.831,60.52,16.934,60.52,63.055h30 C354.959,124.415,345.848,102.112,327.106,86.816z"/>
    </symbol>
    <symbol id="chill_player_button_volume_1" viewBox="0 0 401.963 401.963">        
        <path d="M327.106,86.816c-15.828-12.918-35.53-18.431-54.583-23.762c-35.135-9.831-60.52-16.934-60.52-63.055h-30v273.579 c-14.274-10.374-32.573-16.616-52.5-16.616c-45.49,0-82.5,32.523-82.5,72.5s37.01,72.5,82.5,72.5s82.5-32.523,82.5-72.5V139.874 c15.442,11.721,34.235,16.979,52.436,22.071c35.135,9.831,60.52,16.934,60.52,63.055h30v-70 C354.959,124.415,345.849,102.111,327.106,86.816z M324.959,155.126c-15.442-11.721-34.235-16.979-52.436-22.071 c-35.135-9.831-60.52-16.934-60.52-63.055v-0.126c15.442,11.721,34.235,16.979,52.436,22.071 c35.135,9.831,60.52,16.934,60.52,63.055V155.126z"/>
    </symbol>
    <symbol id="chill_player_button_volume_0" viewBox="0 0 401.963 401.963">
        <path d="M327.106,86.816c-15.828-12.918-35.53-18.431-54.583-23.762c-35.135-9.831-60.52-16.934-60.52-63.055h-30v273.579 c-14.274-10.374-32.573-16.616-52.5-16.616c-45.49,0-82.5,32.523-82.5,72.5s37.01,72.5,82.5,72.5s82.5-32.523,82.5-72.5V209.874 c15.442,11.721,34.235,16.979,52.436,22.071c35.135,9.831,60.52,16.934,60.52,63.055h30V155 C354.959,124.415,345.849,102.111,327.106,86.816z M212.004,69.874c15.442,11.721,34.235,16.979,52.436,22.071 c35.135,9.831,60.52,16.934,60.52,63.055v0.15c-15.444-11.726-34.232-17.002-52.436-22.095c-35.135-9.831-60.52-16.934-60.52-63.055 V69.874z M324.959,225.126c-15.442-11.721-34.235-16.979-52.436-22.071c-35.135-9.831-60.52-16.934-60.52-63.055v-0.15 c15.444,11.726,34.232,17.002,52.436,22.095c35.135,9.831,60.52,16.934,60.52,63.055V225.126z"/>
    </symbol>
    <symbol id="chill_player_button_dot" viewBox="0 0 335 335">
        <circle cx="167.5" cy="167.5" r="167.5"/>
    </symbol>
</svg>